<?xml version="1.0" standalone="no"?>
<!DOCTYPE svg PUBLIC "-//W3C//DTD SVG 1.1//EN" "http://www.w3.org/Graphics/SVG/1.1/DTD/svg11.dtd" >
<svg>
<metadata>
Created by FontForge 20110222 at Mon Mar  7 12:55:12 2011
 By www-data
Typeface (c) Daniel U. Thibault 2003.  All Rights Reserved.
</metadata>
<defs>
<font id="Matoran" horiz-adv-x="1764" >
  <font-face 
    font-family="Matoran"
    font-weight="400"
    font-stretch="normal"
    units-per-em="2048"
    panose-1="2 0 0 0 0 0 0 0 0 0"
    ascent="1638"
    descent="-410"
    x-height="1536"
    cap-height="1536"
    bbox="114 -290 1650 1732"
    underline-thickness="150"
    underline-position="-142"
    unicode-range="U+0020-2122"
  />
    <missing-glyph />
    <glyph glyph-name="space" unicode=" " horiz-adv-x="1252" 
 />
    <glyph glyph-name="space" unicode="&#xa0;" horiz-adv-x="1252" 
 />
    <glyph glyph-name="exclam" unicode="!" horiz-adv-x="451" 
d="M169 364l-55 777v325h223v-325l-52 -777h-116zM122 0v205h207v-205h-207z" />
    <glyph glyph-name="quotedbl" unicode="&#x22;" horiz-adv-x="765" 
d="M164 947l-50 279v240h205v-240l-45 -279h-110zM495 947l-49 279v240h205v-240l-48 -279h-108z" />
    <glyph glyph-name="numbersign" unicode="#" horiz-adv-x="1252" 
d="M114 0v1280h1024v-1280h-1024zM146 32h960v1216h-960v-1216z" />
    <glyph glyph-name="dollar" unicode="$" horiz-adv-x="1252" 
d="M114 0v1280h1024v-1280h-1024zM146 32h960v1216h-960v-1216z" />
    <glyph glyph-name="percent" unicode="%" horiz-adv-x="1252" 
d="M114 0v1280h1024v-1280h-1024zM146 32h960v1216h-960v-1216z" />
    <glyph glyph-name="ampersand" unicode="&#x26;" horiz-adv-x="1252" 
d="M114 0v1280h1024v-1280h-1024zM146 32h960v1216h-960v-1216z" />
    <glyph glyph-name="quotesingle" unicode="'" horiz-adv-x="433" 
d="M164 947l-50 279v240h205v-240l-45 -279h-110z" />
    <glyph glyph-name="parenleft" unicode="(" horiz-adv-x="712" 
d="M469 -190q-149 188 -252 440t-103 522q0 238 77 456q90 253 278 504h129q-121 -208 -160 -297q-61 -138 -96 -288q-43 -187 -43 -376q0 -481 299 -961h-129z" />
    <glyph glyph-name="parenright" unicode=")" horiz-adv-x="712" 
d="M114 -190q299 480 299 961q0 189 -43 376q-35 150 -96 288q-39 89 -160 297h129q188 -251 278 -504q77 -218 77 -456q0 -270 -103 -522t-252 -440h-129z" />
    <glyph glyph-name="asterisk" unicode="*" horiz-adv-x="1252" 
d="M114 0v1280h1024v-1280h-1024zM146 32h960v1216h-960v-1216z" />
    <glyph glyph-name="plus" unicode="+" horiz-adv-x="1252" 
d="M114 0v1280h1024v-1280h-1024zM146 32h960v1216h-960v-1216z" />
    <glyph glyph-name="comma" unicode="," horiz-adv-x="445" 
d="M126 0v205h205v-205q0 -113 -40 -182.5t-127 -107.5l-50 77q57 25 84 73.5t30 139.5h-102z" />
    <glyph glyph-name="hyphen" unicode="-" horiz-adv-x="781" 
d="M114 440v181h553v-181h-553z" />
    <glyph glyph-name="hyphen" unicode="&#xad;" horiz-adv-x="781" 
d="M114 440v181h553v-181h-553z" />
    <glyph glyph-name="period" unicode="." horiz-adv-x="433" 
d="M114 0v205h205v-205h-205z" />
    <glyph glyph-name="slash" unicode="/" horiz-adv-x="1252" 
d="M114 0v1280h1024v-1280h-1024zM146 32h960v1216h-960v-1216z" />
    <glyph glyph-name="zero" unicode="0" 
d="M882 1422q-270 0 -462 -192t-192 -462t192 -462t462 -192t462 192t192 462t-192 462t-462 192zM882 1536q317 0 542.5 -225.5t225.5 -542.5q0 -318 -225.5 -543t-542.5 -225q-318 0 -543 225t-225 543q0 317 225 542.5t543 225.5zM882 853q-85 0 -85 -85t85 -85t85 85
t-85 85zM470 853q-86 0 -86 -85t86 -85q85 0 85 85t-85 85zM590 1145q-85 0 -85 -86q0 -85 85 -85t85 85q0 86 -85 86zM882 1266q-85 0 -85 -86q0 -85 85 -85t85 85q0 86 -85 86zM1174 1145q-85 0 -85 -86q0 -85 85 -85t85 85q0 86 -85 86zM1294 853q-85 0 -85 -85t85 -85
q86 0 86 85t-86 85zM1174 561q-85 0 -85 -86q0 -85 85 -85t85 85q0 86 -85 86zM882 441q-85 0 -85 -85q0 -86 85 -86t85 86q0 85 -85 85zM590 561q-85 0 -85 -86q0 -85 85 -85t85 85q0 86 -85 86z" />
    <glyph glyph-name="one" unicode="1" 
d="M882 1422q-270 0 -462 -192t-192 -462t192 -462t462 -192t462 192t192 462t-192 462t-462 192zM882 1536q317 0 542.5 -225.5t225.5 -542.5q0 -318 -225.5 -543t-542.5 -225q-318 0 -543 225t-225 543q0 317 225 542.5t543 225.5zM882 853q-85 0 -85 -85t85 -85t85 85
t-85 85zM470 853q-86 0 -86 -85t86 -85q85 0 85 85t-85 85zM590 1145q-85 0 -85 -86q0 -85 85 -85t85 85q0 86 -85 86zM882 1351q70 0 120.5 -50.5t50.5 -120.5q0 -71 -50.5 -120.5t-120.5 -49.5q-71 0 -121 49.5t-50 120.5q0 70 50 120.5t121 50.5zM882 1266q-85 0 -85 -86
q0 -85 85 -85t85 85q0 86 -85 86zM1174 1145q-85 0 -85 -86q0 -85 85 -85t85 85q0 86 -85 86zM1294 853q-85 0 -85 -85t85 -85q86 0 86 85t-86 85zM1174 561q-85 0 -85 -86q0 -85 85 -85t85 85q0 86 -85 86zM882 441q-85 0 -85 -85q0 -86 85 -86t85 86q0 85 -85 85zM590 561
q-85 0 -85 -86q0 -85 85 -85t85 85q0 86 -85 86z" />
    <glyph glyph-name="two" unicode="2" 
d="M882 1422q-270 0 -462 -192t-192 -462t192 -462t462 -192t462 192t192 462t-192 462t-462 192zM882 1536q317 0 542.5 -225.5t225.5 -542.5q0 -318 -225.5 -543t-542.5 -225q-318 0 -543 225t-225 543q0 317 225 542.5t543 225.5zM882 853q-85 0 -85 -85t85 -85t85 85
t-85 85zM470 853q-86 0 -86 -85t86 -85q85 0 85 85t-85 85zM590 1145q-85 0 -85 -86q0 -85 85 -85t85 85q0 86 -85 86zM882 1266q-85 0 -85 -86q0 -85 85 -85t85 85q0 86 -85 86zM1174 1230q70 0 120.5 -50.5t50.5 -120.5q0 -71 -50.5 -120.5t-120.5 -49.5q-71 0 -121 49.5
t-50 120.5q0 70 50 120.5t121 50.5zM1174 1145q-85 0 -85 -86q0 -85 85 -85t85 85q0 86 -85 86zM1294 853q-85 0 -85 -85t85 -85q86 0 86 85t-86 85zM1174 561q-85 0 -85 -86q0 -85 85 -85t85 85q0 86 -85 86zM882 441q-85 0 -85 -85q0 -86 85 -86t85 86q0 85 -85 85z
M590 561q-85 0 -85 -86q0 -85 85 -85t85 85q0 86 -85 86z" />
    <glyph glyph-name="three" unicode="3" 
d="M882 1422q-270 0 -462 -192t-192 -462t192 -462t462 -192t462 192t192 462t-192 462t-462 192zM882 1536q317 0 542.5 -225.5t225.5 -542.5q0 -318 -225.5 -543t-542.5 -225q-318 0 -543 225t-225 543q0 317 225 542.5t543 225.5zM882 853q-85 0 -85 -85t85 -85t85 85
t-85 85zM470 853q-86 0 -86 -85t86 -85q85 0 85 85t-85 85zM590 1145q-85 0 -85 -86q0 -85 85 -85t85 85q0 86 -85 86zM882 1266q-85 0 -85 -86q0 -85 85 -85t85 85q0 86 -85 86zM1174 1145q-85 0 -85 -86q0 -85 85 -85t85 85q0 86 -85 86zM1294 939q70 0 120.5 -50.5
t50.5 -120.5q0 -71 -50.5 -121t-120.5 -50q-71 0 -120.5 50t-49.5 121q0 70 49.5 120.5t120.5 50.5zM1294 853q-85 0 -85 -85t85 -85q86 0 86 85t-86 85zM1174 561q-85 0 -85 -86q0 -85 85 -85t85 85q0 86 -85 86zM882 441q-85 0 -85 -85q0 -86 85 -86t85 86q0 85 -85 85z
M590 561q-85 0 -85 -86q0 -85 85 -85t85 85q0 86 -85 86z" />
    <glyph glyph-name="four" unicode="4" 
d="M882 1422q-270 0 -462 -192t-192 -462t192 -462t462 -192t462 192t192 462t-192 462t-462 192zM882 1536q317 0 542.5 -225.5t225.5 -542.5q0 -318 -225.5 -543t-542.5 -225q-318 0 -543 225t-225 543q0 317 225 542.5t543 225.5zM882 853q-85 0 -85 -85t85 -85t85 85
t-85 85zM470 853q-86 0 -86 -85t86 -85q85 0 85 85t-85 85zM590 1145q-85 0 -85 -86q0 -85 85 -85t85 85q0 86 -85 86zM882 1266q-85 0 -85 -86q0 -85 85 -85t85 85q0 86 -85 86zM1174 1145q-85 0 -85 -86q0 -85 85 -85t85 85q0 86 -85 86zM1294 853q-85 0 -85 -85t85 -85
q86 0 86 85t-86 85zM1174 646q70 0 120.5 -50.5t50.5 -120.5q0 -71 -50.5 -120.5t-120.5 -49.5q-71 0 -121 49.5t-50 120.5q0 70 50 120.5t121 50.5zM1174 561q-85 0 -85 -86q0 -85 85 -85t85 85q0 86 -85 86zM882 441q-85 0 -85 -85q0 -86 85 -86t85 86q0 85 -85 85z
M590 561q-85 0 -85 -86q0 -85 85 -85t85 85q0 86 -85 86z" />
    <glyph glyph-name="five" unicode="5" 
d="M882 1422q-270 0 -462 -192t-192 -462t192 -462t462 -192t462 192t192 462t-192 462t-462 192zM882 1536q317 0 542.5 -225.5t225.5 -542.5q0 -318 -225.5 -543t-542.5 -225q-318 0 -543 225t-225 543q0 317 225 542.5t543 225.5zM882 853q-85 0 -85 -85t85 -85t85 85
t-85 85zM470 853q-86 0 -86 -85t86 -85q85 0 85 85t-85 85zM590 1145q-85 0 -85 -86q0 -85 85 -85t85 85q0 86 -85 86zM882 1266q-85 0 -85 -86q0 -85 85 -85t85 85q0 86 -85 86zM1174 1145q-85 0 -85 -86q0 -85 85 -85t85 85q0 86 -85 86zM1294 853q-85 0 -85 -85t85 -85
q86 0 86 85t-86 85zM1174 561q-85 0 -85 -86q0 -85 85 -85t85 85q0 86 -85 86zM882 526q70 0 120.5 -50t50.5 -120q0 -71 -50.5 -121t-120.5 -50q-71 0 -121 50t-50 121q0 70 50 120t121 50zM882 441q-85 0 -85 -85q0 -86 85 -86t85 86q0 85 -85 85zM590 561q-85 0 -85 -86
q0 -85 85 -85t85 85q0 86 -85 86z" />
    <glyph glyph-name="six" unicode="6" 
d="M882 1422q-270 0 -462 -192t-192 -462t192 -462t462 -192t462 192t192 462t-192 462t-462 192zM882 1536q317 0 542.5 -225.5t225.5 -542.5q0 -318 -225.5 -543t-542.5 -225q-318 0 -543 225t-225 543q0 317 225 542.5t543 225.5zM882 853q-85 0 -85 -85t85 -85t85 85
t-85 85zM470 853q-86 0 -86 -85t86 -85q85 0 85 85t-85 85zM590 1145q-85 0 -85 -86q0 -85 85 -85t85 85q0 86 -85 86zM882 1266q-85 0 -85 -86q0 -85 85 -85t85 85q0 86 -85 86zM1174 1145q-85 0 -85 -86q0 -85 85 -85t85 85q0 86 -85 86zM1294 853q-85 0 -85 -85t85 -85
q86 0 86 85t-86 85zM1174 561q-85 0 -85 -86q0 -85 85 -85t85 85q0 86 -85 86zM882 441q-85 0 -85 -85q0 -86 85 -86t85 86q0 85 -85 85zM590 646q70 0 120.5 -50.5t50.5 -120.5q0 -71 -50.5 -120.5t-120.5 -49.5q-71 0 -121 49.5t-50 120.5q0 70 50 120.5t121 50.5z
M590 561q-85 0 -85 -86q0 -85 85 -85t85 85q0 86 -85 86z" />
    <glyph glyph-name="seven" unicode="7" 
d="M882 1422q-270 0 -462 -192t-192 -462t192 -462t462 -192t462 192t192 462t-192 462t-462 192zM882 1536q317 0 542.5 -225.5t225.5 -542.5q0 -318 -225.5 -543t-542.5 -225q-318 0 -543 225t-225 543q0 317 225 542.5t543 225.5zM882 853q-85 0 -85 -85t85 -85t85 85
t-85 85zM470 939q70 0 120 -50.5t50 -120.5q0 -71 -50 -121t-120 -50q-71 0 -121 50t-50 121q0 70 50 120.5t121 50.5zM470 853q-86 0 -86 -85t86 -85q85 0 85 85t-85 85zM590 1145q-85 0 -85 -86q0 -85 85 -85t85 85q0 86 -85 86zM882 1266q-85 0 -85 -86q0 -85 85 -85
t85 85q0 86 -85 86zM1174 1145q-85 0 -85 -86q0 -85 85 -85t85 85q0 86 -85 86zM1294 853q-85 0 -85 -85t85 -85q86 0 86 85t-86 85zM1174 561q-85 0 -85 -86q0 -85 85 -85t85 85q0 86 -85 86zM882 441q-85 0 -85 -85q0 -86 85 -86t85 86q0 85 -85 85zM590 561
q-85 0 -85 -86q0 -85 85 -85t85 85q0 86 -85 86z" />
    <glyph glyph-name="eight" unicode="8" 
d="M882 1422q-270 0 -462 -192t-192 -462t192 -462t462 -192t462 192t192 462t-192 462t-462 192zM882 1536q317 0 542.5 -225.5t225.5 -542.5q0 -318 -225.5 -543t-542.5 -225q-318 0 -543 225t-225 543q0 317 225 542.5t543 225.5zM882 853q-85 0 -85 -85t85 -85t85 85
t-85 85zM470 853q-86 0 -86 -85t86 -85q85 0 85 85t-85 85zM590 1230q70 0 120.5 -50.5t50.5 -120.5q0 -71 -50.5 -120.5t-120.5 -49.5q-71 0 -121 49.5t-50 120.5q0 70 50 120.5t121 50.5zM590 1145q-85 0 -85 -86q0 -85 85 -85t85 85q0 86 -85 86zM882 1266q-85 0 -85 -86
q0 -85 85 -85t85 85q0 86 -85 86zM1174 1145q-85 0 -85 -86q0 -85 85 -85t85 85q0 86 -85 86zM1294 853q-85 0 -85 -85t85 -85q86 0 86 85t-86 85zM1174 561q-85 0 -85 -86q0 -85 85 -85t85 85q0 86 -85 86zM882 441q-85 0 -85 -85q0 -86 85 -86t85 86q0 85 -85 85zM590 561
q-85 0 -85 -86q0 -85 85 -85t85 85q0 86 -85 86z" />
    <glyph glyph-name="nine" unicode="9" 
d="M882 1422q-270 0 -462 -192t-192 -462t192 -462t462 -192t462 192t192 462t-192 462t-462 192zM882 1536q317 0 542.5 -225.5t225.5 -542.5q0 -318 -225.5 -543t-542.5 -225q-318 0 -543 225t-225 543q0 317 225 542.5t543 225.5zM882 939q70 0 120.5 -50.5t50.5 -120.5
q0 -71 -50.5 -121t-120.5 -50q-71 0 -121 50t-50 121q0 70 50 120.5t121 50.5zM882 853q-85 0 -85 -85t85 -85t85 85t-85 85zM470 853q-86 0 -86 -85t86 -85q85 0 85 85t-85 85zM590 1145q-85 0 -85 -86q0 -85 85 -85t85 85q0 86 -85 86zM882 1266q-85 0 -85 -86
q0 -85 85 -85t85 85q0 86 -85 86zM1174 1145q-85 0 -85 -86q0 -85 85 -85t85 85q0 86 -85 86zM1294 853q-85 0 -85 -85t85 -85q86 0 86 85t-86 85zM1174 561q-85 0 -85 -86q0 -85 85 -85t85 85q0 86 -85 86zM882 441q-85 0 -85 -85q0 -86 85 -86t85 86q0 85 -85 85zM590 561
q-85 0 -85 -86q0 -85 85 -85t85 85q0 86 -85 86z" />
    <glyph glyph-name="colon" unicode=":" horiz-adv-x="433" 
d="M114 857v205h205v-205h-205zM114 0v205h205v-205h-205z" />
    <glyph glyph-name="semicolon" unicode=";" horiz-adv-x="445" 
d="M126 857v205h205v-205h-205zM126 0v205h205v-205q0 -113 -40 -182.5t-127 -107.5l-50 77q57 25 84 73.5t30 139.5h-102z" />
    <glyph glyph-name="semicolon" unicode="&#x37e;" horiz-adv-x="445" 
d="M126 857v205h205v-205h-205zM126 0v205h205v-205q0 -113 -40 -182.5t-127 -107.5l-50 77q57 25 84 73.5t30 139.5h-102z" />
    <glyph glyph-name="less" unicode="&#x3c;" horiz-adv-x="1252" 
d="M114 0v1280h1024v-1280h-1024zM146 32h960v1216h-960v-1216z" />
    <glyph glyph-name="equal" unicode="=" horiz-adv-x="1252" 
d="M114 0v1280h1024v-1280h-1024zM146 32h960v1216h-960v-1216z" />
    <glyph glyph-name="greater" unicode="&#x3e;" horiz-adv-x="1252" 
d="M114 0v1280h1024v-1280h-1024zM146 32h960v1216h-960v-1216z" />
    <glyph glyph-name="question" unicode="?" horiz-adv-x="1174" 
d="M496 361q-1 36 -1 54q0 106 30 183q22 58 71 117q36 43 129.5 125.5t121.5 131.5t28 107q0 105 -82 184.5t-201 79.5q-115 0 -192 -72t-101 -225l-185 22q25 205 148.5 314t326.5 109q215 0 343 -117t128 -283q0 -96 -45 -177t-176 -197q-88 -78 -115 -115t-40 -85
t-15 -156h-173zM485 0v205h205v-205h-205z" />
    <glyph glyph-name="at" unicode="@" horiz-adv-x="1252" 
d="M114 0v1280h1024v-1280h-1024zM146 32h960v1216h-960v-1216z" />
    <glyph glyph-name="A" unicode="A" 
d="M882 526q70 0 120.5 -50t50.5 -120q0 -71 -50.5 -121t-120.5 -50q-71 0 -121 50t-50 121q0 70 50 120t121 50zM882 441q-85 0 -85 -85q0 -86 85 -86t85 86q0 85 -85 85zM882 1422q-270 0 -462 -192t-192 -462t192 -462t462 -192t462 192t192 462t-192 462t-462 192z
M882 1536q317 0 542.5 -225.5t225.5 -542.5q0 -318 -225.5 -543t-542.5 -225q-318 0 -543 225t-225 543q0 317 225 542.5t543 225.5z" />
    <glyph glyph-name="B" unicode="B" 
d="M882 1351q70 0 120.5 -50.5t50.5 -120.5q0 -71 -50.5 -120.5t-120.5 -49.5q-71 0 -121 49.5t-50 120.5q0 70 50 120.5t121 50.5zM882 1266q-85 0 -85 -86q0 -85 85 -85t85 85q0 86 -85 86zM882 526q70 0 120.5 -50t50.5 -120q0 -71 -50.5 -121t-120.5 -50q-71 0 -121 50
t-50 121q0 70 50 120t121 50zM882 441q-85 0 -85 -85q0 -86 85 -86t85 86q0 85 -85 85zM882 1422q-270 0 -462 -192t-192 -462t192 -462t462 -192t462 192t192 462t-192 462t-462 192zM882 1536q317 0 542.5 -225.5t225.5 -542.5q0 -318 -225.5 -543t-542.5 -225
q-318 0 -543 225t-225 543q0 317 225 542.5t543 225.5z" />
    <glyph glyph-name="C" unicode="C" 
d="M1294 939q70 0 120.5 -50.5t50.5 -120.5q0 -71 -50.5 -121t-120.5 -50q-71 0 -120.5 50t-49.5 121q0 70 49.5 120.5t120.5 50.5zM1294 853q-85 0 -85 -85t85 -85q86 0 86 85t-86 85zM882 1422q-270 0 -462 -192t-192 -462t192 -462t462 -192t462 192t192 462t-192 462
t-462 192zM882 1536q317 0 542.5 -225.5t225.5 -542.5q0 -318 -225.5 -543t-542.5 -225q-318 0 -543 225t-225 543q0 317 225 542.5t543 225.5z" />
    <glyph glyph-name="D" unicode="D" 
d="M825 1420q-251 -22 -424 -209.5t-173 -442.5q0 -256 173 -443.5t424 -208.5v1304zM939 1420v-1304q250 21 423.5 208.5t173.5 443.5q0 255 -173.5 442.5t-423.5 209.5zM882 1536q317 0 542.5 -225.5t225.5 -542.5q0 -318 -225.5 -543t-542.5 -225q-318 0 -543 225
t-225 543q0 317 225 542.5t543 225.5zM1294 939q70 0 120.5 -50.5t50.5 -120.5q0 -71 -50.5 -121t-120.5 -50q-71 0 -120.5 50t-49.5 121q0 70 49.5 120.5t120.5 50.5zM1294 853q-85 0 -85 -85t85 -85q86 0 86 85t-86 85z" />
    <glyph glyph-name="E" unicode="E" 
d="M1650 768q0 -318 -225.5 -543t-542.5 -225t-542.5 225t-225.5 543q0 317 225 542.5t543 225.5t543 -225.5t225 -542.5zM1422 1138q-37 52 -77 93q-192 191 -463.5 191t-462.5 -191q-41 -41 -77 -93h1080zM1422 398h-1080q36 -53 77 -93q191 -192 462.5 -192t463.5 192
q40 40 77 93zM1486 512q108 256 0 512h-1205q-59 -139 -55 -270t55 -242h1205z" />
    <glyph glyph-name="F" unicode="F" 
d="M342 1138h1080q-37 52 -77 93q-192 191 -463.5 191t-462.5 -191q-41 -41 -77 -93zM280 1024q-76 -179 -41.5 -376.5t180.5 -342.5q191 -192 462.5 -192t463.5 192q145 145 179.5 342.5t-40.5 376.5h-1204zM114 768q0 317 225 542.5t543 225.5t543 -225.5t225 -542.5
q0 -318 -225.5 -543t-542.5 -225t-542.5 225t-225.5 543z" />
    <glyph glyph-name="G" unicode="G" 
d="M882 1536q317 0 542.5 -225.5t225.5 -542.5q0 -318 -225.5 -543t-542.5 -225q-318 0 -543 225t-225 543q0 317 225 542.5t543 225.5zM825 1420q-251 -22 -424 -209.5t-173 -442.5q0 -256 173 -443.5t424 -208.5v1304zM1324 285q189 174 210 426h-595v-595q219 19 385 169
zM1365 1210q-175 189 -426 210v-595h595q-20 219 -169 385z" />
    <glyph glyph-name="H" unicode="H" 
d="M882 0q-317 0 -542.5 225t-225.5 543q0 317 225 542.5t543 225.5t543 -225.5t225 -542.5q0 -318 -225.5 -543t-542.5 -225zM1252 228q52 36 93 77q191 191 191 462.5t-191 463.5q-41 40 -93 77v-1080zM512 228v1080q-53 -37 -93 -77q-192 -192 -192 -463.5t192 -462.5
q40 -41 93 -77zM626 164q256 -109 512 0v1205q-139 58 -270 54t-242 -54v-1205zM882 1351q70 0 120.5 -50.5t50.5 -120.5q0 -71 -50.5 -120.5t-120.5 -49.5q-71 0 -121 49.5t-50 120.5q0 70 50 120.5t121 50.5zM882 1266q-85 0 -85 -86q0 -85 85 -85t85 85q0 86 -85 86z
M882 526q70 0 120.5 -50t50.5 -120q0 -71 -50.5 -121t-120.5 -50q-71 0 -121 50t-50 121q0 70 50 120t121 50zM882 441q-85 0 -85 -85q0 -86 85 -86t85 86q0 85 -85 85z" />
    <glyph glyph-name="I" unicode="I" 
d="M825 1420q-251 -22 -424 -209.5t-173 -442.5q0 -256 173 -443.5t424 -208.5v1304zM939 1420v-1304q250 21 423.5 208.5t173.5 443.5q0 255 -173.5 442.5t-423.5 209.5zM882 1536q317 0 542.5 -225.5t225.5 -542.5q0 -318 -225.5 -543t-542.5 -225q-318 0 -543 225
t-225 543q0 317 225 542.5t543 225.5z" />
    <glyph glyph-name="J" unicode="J" 
d="M825 1420q-251 -22 -424 -209.5t-173 -442.5q0 -256 173 -443.5t424 -208.5v1304zM939 1420v-1304q250 21 423.5 208.5t173.5 443.5q0 255 -173.5 442.5t-423.5 209.5zM882 1536q317 0 542.5 -225.5t225.5 -542.5q0 -318 -225.5 -543t-542.5 -225q-318 0 -543 225
t-225 543q0 317 225 542.5t543 225.5zM590 646q70 0 120.5 -50.5t50.5 -120.5q0 -71 -50.5 -120.5t-120.5 -49.5q-71 0 -121 49.5t-50 120.5q0 70 50 120.5t121 50.5zM590 561q-85 0 -85 -86q0 -85 85 -85t85 85q0 86 -85 86z" />
    <glyph glyph-name="K" unicode="K" 
d="M1650 768q0 -318 -225.5 -543t-542.5 -225q-318 0 -543 225t-225 543q0 317 225 542.5t543 225.5q317 0 542.5 -225.5t225.5 -542.5zM849 825l309 535q-129 62 -276 62q-256 0 -443.5 -173.5t-208.5 -423.5h619zM948 768l309 -536q118 82 192 209q127 221 70.5 470
t-262.5 393zM849 711h-619q12 -145 85 -270q128 -222 371.5 -297.5t471.5 31.5z" />
    <glyph glyph-name="L" unicode="L" 
d="M825 1420q-251 -22 -424 -209.5t-173 -442.5q0 -256 173 -443.5t424 -208.5v1304zM939 1420v-1304q250 21 423.5 208.5t173.5 443.5q0 255 -173.5 442.5t-423.5 209.5zM882 1536q317 0 542.5 -225.5t225.5 -542.5q0 -318 -225.5 -543t-542.5 -225q-318 0 -543 225
t-225 543q0 317 225 542.5t543 225.5zM1174 646q70 0 120.5 -50.5t50.5 -120.5q0 -71 -50.5 -120.5t-120.5 -49.5q-71 0 -121 49.5t-50 120.5q0 70 50 120.5t121 50.5zM1174 561q-85 0 -85 -86q0 -85 85 -85t85 85q0 86 -85 86z" />
    <glyph glyph-name="M" unicode="M" 
d="M882 0q-317 0 -542.5 225t-225.5 543q0 317 225 542.5t543 225.5t543 -225.5t225 -542.5q0 -318 -225.5 -543t-542.5 -225zM1252 228q52 36 93 77q191 191 191 462.5t-191 463.5q-41 40 -93 77v-1080zM512 228v1080q-53 -37 -93 -77q-192 -192 -192 -463.5t192 -462.5
q40 -41 93 -77zM626 164q256 -109 512 0v1205q-139 58 -270 54t-242 -54v-1205z" />
    <glyph glyph-name="N" unicode="N" 
d="M381 1188q-162 -192 -152.5 -447t191.5 -435q180 -182 435 -191.5t447 152.5zM462 1269l921 -921q162 192 152 446.5t-191 435.5t-435.5 191t-446.5 -152zM114 768q0 317 225.5 542t542.5 226q317 -1 542.5 -226t225.5 -542q-1 -317 -226 -542.5t-542 -225.5t-542 225.5
t-226 542.5z" />
    <glyph glyph-name="O" unicode="O" 
d="M882 1422q-270 0 -462 -192t-192 -462t192 -462t462 -192t462 192t192 462t-192 462t-462 192zM882 1536q317 0 542.5 -225.5t225.5 -542.5q0 -318 -225.5 -543t-542.5 -225q-318 0 -543 225t-225 543q0 317 225 542.5t543 225.5z" />
    <glyph glyph-name="P" unicode="P" 
d="M825 1420q-251 -22 -424 -209.5t-173 -442.5q0 -256 173 -443.5t424 -208.5v1304zM939 1420v-1304q250 21 423.5 208.5t173.5 443.5q0 255 -173.5 442.5t-423.5 209.5zM882 1536q317 0 542.5 -225.5t225.5 -542.5q0 -318 -225.5 -543t-542.5 -225q-318 0 -543 225
t-225 543q0 317 225 542.5t543 225.5zM1174 1230q70 0 120.5 -50.5t50.5 -120.5q0 -71 -50.5 -120.5t-120.5 -49.5q-71 0 -121 49.5t-50 120.5q0 70 50 120.5t121 50.5zM1174 1145q-85 0 -85 -86q0 -85 85 -85t85 85q0 86 -85 86z" />
    <glyph glyph-name="Q" unicode="Q" 
d="M1174 646q70 0 120.5 -50.5t50.5 -120.5q0 -71 -50.5 -120.5t-120.5 -49.5q-71 0 -121 49.5t-50 120.5q0 70 50 120.5t121 50.5zM1174 561q-85 0 -85 -86q0 -85 85 -85t85 85q0 86 -85 86zM882 1422q-270 0 -462 -192t-192 -462t192 -462t462 -192t462 192t192 462
t-192 462t-462 192zM882 1536q317 0 542.5 -225.5t225.5 -542.5q0 -318 -225.5 -543t-542.5 -225q-318 0 -543 225t-225 543q0 317 225 542.5t543 225.5z" />
    <glyph glyph-name="R" unicode="R" 
d="M882 1536q317 0 542.5 -225.5t225.5 -542.5q0 -318 -225.5 -543t-542.5 -225q-318 0 -543 225t-225 543q0 317 225 542.5t543 225.5zM825 1420q-251 -22 -424 -209.5t-173 -442.5q0 -256 173 -443.5t424 -208.5v1304zM1324 285q189 174 210 426h-595v-595q219 19 385 169
zM1365 1210q-175 189 -426 210v-595h595q-20 219 -169 385zM1174 1230q70 0 120.5 -50.5t50.5 -120.5q0 -71 -50.5 -120.5t-120.5 -49.5q-71 0 -121 49.5t-50 120.5q0 70 50 120.5t121 50.5zM1174 1145q-85 0 -85 -86q0 -85 85 -85t85 85q0 86 -85 86z" />
    <glyph glyph-name="S" unicode="S" 
d="M590 646q70 0 120.5 -50.5t50.5 -120.5q0 -71 -50.5 -120.5t-120.5 -49.5q-71 0 -121 49.5t-50 120.5q0 70 50 120.5t121 50.5zM590 561q-85 0 -85 -86q0 -85 85 -85t85 85q0 86 -85 86zM1174 1230q70 0 120.5 -50.5t50.5 -120.5q0 -71 -50.5 -120.5t-120.5 -49.5
q-71 0 -121 49.5t-50 120.5q0 70 50 120.5t121 50.5zM1174 1145q-85 0 -85 -86q0 -85 85 -85t85 85q0 86 -85 86zM882 1422q-270 0 -462 -192t-192 -462t192 -462t462 -192t462 192t192 462t-192 462t-462 192zM882 1536q317 0 542.5 -225.5t225.5 -542.5
q0 -318 -225.5 -543t-542.5 -225q-318 0 -543 225t-225 543q0 317 225 542.5t543 225.5z" />
    <glyph glyph-name="T" unicode="T" 
d="M114 768q0 317 225 542.5t543 225.5q317 0 542.5 -225.5t225.5 -542.5q0 -318 -225.5 -543t-542.5 -225q-318 0 -543 225t-225 543zM230 825h1304q-22 250 -209.5 423.5t-442.5 173.5q-256 0 -443.5 -173.5t-208.5 -423.5zM1534 711h-595v-595q251 20 426 210
q149 165 169 385zM825 116v595h-595q20 -252 210 -426q165 -150 385 -169z" />
    <glyph glyph-name="U" unicode="U" 
d="M882 1351q70 0 120.5 -50.5t50.5 -120.5q0 -71 -50.5 -120.5t-120.5 -49.5q-71 0 -121 49.5t-50 120.5q0 70 50 120.5t121 50.5zM882 1266q-85 0 -85 -86q0 -85 85 -85t85 85q0 86 -85 86zM882 1422q-270 0 -462 -192t-192 -462t192 -462t462 -192t462 192t192 462
t-192 462t-462 192zM882 1536q317 0 542.5 -225.5t225.5 -542.5q0 -318 -225.5 -543t-542.5 -225q-318 0 -543 225t-225 543q0 317 225 542.5t543 225.5z" />
    <glyph glyph-name="V" unicode="V" 
d="M1536 739q9 257 -153 450l-421 -421l421 -421q143 170 153 392zM853 114q257 -10 450 153l-421 421l-421 -421q170 -144 392 -153zM228 797q-10 -258 153 -450l421 421l-421 421q-144 -171 -153 -392zM911 1422q-258 9 -450 -153l421 -421l421 421q-171 143 -392 153z
M114 768q0 317 225 542.5t543 225.5t543 -225.5t225 -542.5q0 -318 -225.5 -543t-542.5 -225t-542.5 225t-225.5 543zM882 1351q70 0 120.5 -50.5t50.5 -120.5q0 -71 -50.5 -120.5t-120.5 -49.5q-71 0 -121 49.5t-50 120.5q0 70 50 120.5t121 50.5zM882 1266q-85 0 -85 -86
q0 -85 85 -85t85 85q0 86 -85 86z" />
    <glyph glyph-name="W" unicode="W" 
d="M1536 739q9 257 -153 450l-421 -421l421 -421q143 170 153 392zM853 114q257 -10 450 153l-421 421l-421 -421q170 -144 392 -153zM228 797q-10 -258 153 -450l421 421l-421 421q-144 -171 -153 -392zM911 1422q-258 9 -450 -153l421 -421l421 421q-171 143 -392 153z
M114 768q0 317 225 542.5t543 225.5t543 -225.5t225 -542.5q0 -318 -225.5 -543t-542.5 -225t-542.5 225t-225.5 543zM1294 939q70 0 120.5 -50.5t50.5 -120.5q0 -71 -50.5 -121t-120.5 -50q-71 0 -120.5 50t-49.5 121q0 70 49.5 120.5t120.5 50.5zM1294 853q-85 0 -85 -85
t85 -85q86 0 86 85t-86 85zM470 939q70 0 120 -50.5t50 -120.5q0 -71 -50 -121t-120 -50q-71 0 -121 50t-50 121q0 70 50 120.5t121 50.5zM470 853q-86 0 -86 -85t86 -85q85 0 85 85t-85 85z" />
    <glyph glyph-name="X" unicode="X" 
d="M1536 739q9 257 -153 450l-421 -421l421 -421q143 170 153 392zM853 114q257 -10 450 153l-421 421l-421 -421q170 -144 392 -153zM228 797q-10 -258 153 -450l421 421l-421 421q-144 -171 -153 -392zM911 1422q-258 9 -450 -153l421 -421l421 421q-171 143 -392 153z
M114 768q0 317 225 542.5t543 225.5t543 -225.5t225 -542.5q0 -318 -225.5 -543t-542.5 -225t-542.5 225t-225.5 543z" />
    <glyph glyph-name="Y" unicode="Y" 
d="M1302 267l-921 921q-162 -192 -152.5 -447t191.5 -435q180 -182 435 -191.5t447 152.5zM461 1269l421 -421l421 421q-193 162 -450 153q-222 -10 -392 -153zM1383 1189l-421 -421l421 -421q162 192 153 450q-10 221 -153 392zM114 768q0 317 225 542.5t543 225.5
t543 -225.5t225 -542.5q0 -318 -225.5 -543t-542.5 -225t-542.5 225t-225.5 543z" />
    <glyph glyph-name="Z" unicode="Z" 
d="M462 267q192 -162 446.5 -152.5t435.5 191.5q181 180 191 435t-152 447zM381 348l921 921q-192 162 -447 152t-435 -191q-182 -181 -191.5 -435.5t152.5 -446.5zM882 0q-317 0 -542 225.5t-226 542.5q0 317 225.5 542t542.5 226q317 -1 542.5 -226t225.5 -542
q-1 -317 -226 -542.5t-542 -225.5z" />
    <glyph glyph-name="bracketleft" unicode="[" horiz-adv-x="1252" 
d="M114 0v1280h1024v-1280h-1024zM146 32h960v1216h-960v-1216z" />
    <glyph glyph-name="backslash" unicode="\" horiz-adv-x="1252" 
d="M114 0v1280h1024v-1280h-1024zM146 32h960v1216h-960v-1216z" />
    <glyph glyph-name="bracketright" unicode="]" horiz-adv-x="1252" 
d="M114 0v1280h1024v-1280h-1024zM146 32h960v1216h-960v-1216z" />
    <glyph glyph-name="asciicircum" unicode="^" horiz-adv-x="1252" 
d="M114 0v1280h1024v-1280h-1024zM146 32h960v1216h-960v-1216z" />
    <glyph glyph-name="underscore" unicode="_" horiz-adv-x="1252" 
d="M114 0v1280h1024v-1280h-1024zM146 32h960v1216h-960v-1216z" />
    <glyph glyph-name="grave" unicode="`" 
d="M962 607l-241 241l81 81l241 -241z" />
    <glyph glyph-name="a" unicode="a" 
d="M882 1422q-270 0 -462 -192t-192 -462t192 -462t462 -192t462 192t192 462t-192 462t-462 192zM882 1536q317 0 542.5 -225.5t225.5 -542.5q0 -318 -225.5 -543t-542.5 -225q-318 0 -543 225t-225 543q0 317 225 542.5t543 225.5zM882 526q70 0 120.5 -50t50.5 -120
q0 -71 -50.5 -121t-120.5 -50q-71 0 -121 50t-50 121q0 70 50 120t121 50zM882 441q-85 0 -85 -85q0 -86 85 -86t85 86q0 85 -85 85z" />
    <glyph glyph-name="b" unicode="b" 
d="M882 1422q-270 0 -462 -192t-192 -462t192 -462t462 -192t462 192t192 462t-192 462t-462 192zM882 1536q317 0 542.5 -225.5t225.5 -542.5q0 -318 -225.5 -543t-542.5 -225q-318 0 -543 225t-225 543q0 317 225 542.5t543 225.5zM882 526q70 0 120.5 -50t50.5 -120
q0 -71 -50.5 -121t-120.5 -50q-71 0 -121 50t-50 121q0 70 50 120t121 50zM882 441q-85 0 -85 -85q0 -86 85 -86t85 86q0 85 -85 85zM882 1351q70 0 120.5 -50.5t50.5 -120.5q0 -71 -50.5 -120.5t-120.5 -49.5q-71 0 -121 49.5t-50 120.5q0 70 50 120.5t121 50.5zM882 1266
q-85 0 -85 -86q0 -85 85 -85t85 85q0 86 -85 86z" />
    <glyph glyph-name="c" unicode="c" 
d="M882 1422q-270 0 -462 -192t-192 -462t192 -462t462 -192t462 192t192 462t-192 462t-462 192zM882 1536q317 0 542.5 -225.5t225.5 -542.5q0 -318 -225.5 -543t-542.5 -225q-318 0 -543 225t-225 543q0 317 225 542.5t543 225.5zM1294 939q70 0 120.5 -50.5t50.5 -120.5
q0 -71 -50.5 -121t-120.5 -50q-71 0 -120.5 50t-49.5 121q0 70 49.5 120.5t120.5 50.5zM1294 853q-85 0 -85 -85t85 -85q86 0 86 85t-86 85z" />
    <glyph glyph-name="d" unicode="d" 
d="M825 1420q-251 -22 -424 -209.5t-173 -442.5q0 -256 173 -443.5t424 -208.5v1304zM939 1420v-1304q250 21 423.5 208.5t173.5 443.5q0 255 -173.5 442.5t-423.5 209.5zM882 1536q317 0 542.5 -225.5t225.5 -542.5q0 -318 -225.5 -543t-542.5 -225q-318 0 -543 225
t-225 543q0 317 225 542.5t543 225.5zM1294 939q70 0 120.5 -50.5t50.5 -120.5q0 -71 -50.5 -121t-120.5 -50q-71 0 -120.5 50t-49.5 121q0 70 49.5 120.5t120.5 50.5zM1294 853q-85 0 -85 -85t85 -85q86 0 86 85t-86 85z" />
    <glyph glyph-name="e" unicode="e" 
d="M1650 768q0 -318 -225.5 -543t-542.5 -225t-542.5 225t-225.5 543q0 317 225 542.5t543 225.5t543 -225.5t225 -542.5zM1422 1138q-37 52 -77 93q-192 191 -463.5 191t-462.5 -191q-41 -41 -77 -93h1080zM1422 398h-1080q36 -53 77 -93q191 -192 462.5 -192t463.5 192
q40 40 77 93zM1486 512q108 256 0 512h-1205q-59 -139 -55 -270t55 -242h1205z" />
    <glyph glyph-name="f" unicode="f" 
d="M342 1138h1080q-37 52 -77 93q-192 191 -463.5 191t-462.5 -191q-41 -41 -77 -93zM280 1024q-76 -179 -41.5 -376.5t180.5 -342.5q191 -192 462.5 -192t463.5 192q145 145 179.5 342.5t-40.5 376.5h-1204zM114 768q0 317 225 542.5t543 225.5t543 -225.5t225 -542.5
q0 -318 -225.5 -543t-542.5 -225t-542.5 225t-225.5 543z" />
    <glyph glyph-name="g" unicode="g" 
d="M882 1536q317 0 542.5 -225.5t225.5 -542.5q0 -318 -225.5 -543t-542.5 -225q-318 0 -543 225t-225 543q0 317 225 542.5t543 225.5zM825 1420q-251 -22 -424 -209.5t-173 -442.5q0 -256 173 -443.5t424 -208.5v1304zM1324 285q189 174 210 426h-595v-595q219 19 385 169
zM1365 1210q-175 189 -426 210v-595h595q-20 219 -169 385z" />
    <glyph glyph-name="h" unicode="h" 
d="M882 0q-317 0 -542.5 225t-225.5 543q0 317 225 542.5t543 225.5t543 -225.5t225 -542.5q0 -318 -225.5 -543t-542.5 -225zM1252 228q52 36 93 77q191 191 191 462.5t-191 463.5q-41 40 -93 77v-1080zM512 228v1080q-53 -37 -93 -77q-192 -192 -192 -463.5t192 -462.5
q40 -41 93 -77zM626 164q256 -109 512 0v1205q-139 58 -270 54t-242 -54v-1205zM882 526q70 0 120.5 -50t50.5 -120q0 -71 -50.5 -121t-120.5 -50q-71 0 -121 50t-50 121q0 70 50 120t121 50zM882 441q-85 0 -85 -85q0 -86 85 -86t85 86q0 85 -85 85zM882 1351
q70 0 120.5 -50.5t50.5 -120.5q0 -71 -50.5 -120.5t-120.5 -49.5q-71 0 -121 49.5t-50 120.5q0 70 50 120.5t121 50.5zM882 1266q-85 0 -85 -86q0 -85 85 -85t85 85q0 86 -85 86z" />
    <glyph glyph-name="i" unicode="i" 
d="M825 1420q-251 -22 -424 -209.5t-173 -442.5q0 -256 173 -443.5t424 -208.5v1304zM939 1420v-1304q250 21 423.5 208.5t173.5 443.5q0 255 -173.5 442.5t-423.5 209.5zM882 1536q317 0 542.5 -225.5t225.5 -542.5q0 -318 -225.5 -543t-542.5 -225q-318 0 -543 225
t-225 543q0 317 225 542.5t543 225.5z" />
    <glyph glyph-name="j" unicode="j" 
d="M825 1420q-251 -22 -424 -209.5t-173 -442.5q0 -256 173 -443.5t424 -208.5v1304zM939 1420v-1304q250 21 423.5 208.5t173.5 443.5q0 255 -173.5 442.5t-423.5 209.5zM882 1536q317 0 542.5 -225.5t225.5 -542.5q0 -318 -225.5 -543t-542.5 -225q-318 0 -543 225
t-225 543q0 317 225 542.5t543 225.5zM590 646q70 0 120.5 -50.5t50.5 -120.5q0 -71 -50.5 -120.5t-120.5 -49.5q-71 0 -121 49.5t-50 120.5q0 70 50 120.5t121 50.5zM590 561q-85 0 -85 -86q0 -85 85 -85t85 85q0 86 -85 86z" />
    <glyph glyph-name="k" unicode="k" 
d="M1650 768q0 -318 -225.5 -543t-542.5 -225q-318 0 -543 225t-225 543q0 317 225 542.5t543 225.5q317 0 542.5 -225.5t225.5 -542.5zM849 825l309 535q-129 62 -276 62q-256 0 -443.5 -173.5t-208.5 -423.5h619zM948 768l309 -536q118 82 192 209q127 221 70.5 470
t-262.5 393zM849 711h-619q12 -145 85 -270q128 -222 371.5 -297.5t471.5 31.5z" />
    <glyph glyph-name="l" unicode="l" 
d="M825 1420q-251 -22 -424 -209.5t-173 -442.5q0 -256 173 -443.5t424 -208.5v1304zM939 1420v-1304q250 21 423.5 208.5t173.5 443.5q0 255 -173.5 442.5t-423.5 209.5zM882 1536q317 0 542.5 -225.5t225.5 -542.5q0 -318 -225.5 -543t-542.5 -225q-318 0 -543 225
t-225 543q0 317 225 542.5t543 225.5zM1174 646q70 0 120.5 -50.5t50.5 -120.5q0 -71 -50.5 -120.5t-120.5 -49.5q-71 0 -121 49.5t-50 120.5q0 70 50 120.5t121 50.5zM1174 561q-85 0 -85 -86q0 -85 85 -85t85 85q0 86 -85 86z" />
    <glyph glyph-name="m" unicode="m" 
d="M882 0q-317 0 -542.5 225t-225.5 543q0 317 225 542.5t543 225.5t543 -225.5t225 -542.5q0 -318 -225.5 -543t-542.5 -225zM1252 228q52 36 93 77q191 191 191 462.5t-191 463.5q-41 40 -93 77v-1080zM512 228v1080q-53 -37 -93 -77q-192 -192 -192 -463.5t192 -462.5
q40 -41 93 -77zM626 164q256 -109 512 0v1205q-139 58 -270 54t-242 -54v-1205z" />
    <glyph glyph-name="n" unicode="n" 
d="M381 1188q-162 -192 -152.5 -447t191.5 -435q180 -182 435 -191.5t447 152.5zM462 1269l921 -921q162 192 152 446.5t-191 435.5t-435.5 191t-446.5 -152zM114 768q0 317 225.5 542t542.5 226q317 -1 542.5 -226t225.5 -542q-1 -317 -226 -542.5t-542 -225.5t-542 225.5
t-226 542.5z" />
    <glyph glyph-name="o" unicode="o" 
d="M882 1422q-270 0 -462 -192t-192 -462t192 -462t462 -192t462 192t192 462t-192 462t-462 192zM882 1536q317 0 542.5 -225.5t225.5 -542.5q0 -318 -225.5 -543t-542.5 -225q-318 0 -543 225t-225 543q0 317 225 542.5t543 225.5z" />
    <glyph glyph-name="p" unicode="p" 
d="M825 1420q-251 -22 -424 -209.5t-173 -442.5q0 -256 173 -443.5t424 -208.5v1304zM939 1420v-1304q250 21 423.5 208.5t173.5 443.5q0 255 -173.5 442.5t-423.5 209.5zM882 1536q317 0 542.5 -225.5t225.5 -542.5q0 -318 -225.5 -543t-542.5 -225q-318 0 -543 225
t-225 543q0 317 225 542.5t543 225.5zM1174 1230q70 0 120.5 -50.5t50.5 -120.5q0 -71 -50.5 -120.5t-120.5 -49.5q-71 0 -121 49.5t-50 120.5q0 70 50 120.5t121 50.5zM1174 1145q-85 0 -85 -86q0 -85 85 -85t85 85q0 86 -85 86z" />
    <glyph glyph-name="q" unicode="q" 
d="M882 1422q-270 0 -462 -192t-192 -462t192 -462t462 -192t462 192t192 462t-192 462t-462 192zM882 1536q317 0 542.5 -225.5t225.5 -542.5q0 -318 -225.5 -543t-542.5 -225q-318 0 -543 225t-225 543q0 317 225 542.5t543 225.5zM1174 646q70 0 120.5 -50.5t50.5 -120.5
q0 -71 -50.5 -120.5t-120.5 -49.5q-71 0 -121 49.5t-50 120.5q0 70 50 120.5t121 50.5zM1174 561q-85 0 -85 -86q0 -85 85 -85t85 85q0 86 -85 86z" />
    <glyph glyph-name="r" unicode="r" 
d="M882 1536q317 0 542.5 -225.5t225.5 -542.5q0 -318 -225.5 -543t-542.5 -225q-318 0 -543 225t-225 543q0 317 225 542.5t543 225.5zM825 1420q-251 -22 -424 -209.5t-173 -442.5q0 -256 173 -443.5t424 -208.5v1304zM1324 285q189 174 210 426h-595v-595q219 19 385 169
zM1365 1210q-175 189 -426 210v-595h595q-20 219 -169 385zM1174 1230q70 0 120.5 -50.5t50.5 -120.5q0 -71 -50.5 -120.5t-120.5 -49.5q-71 0 -121 49.5t-50 120.5q0 70 50 120.5t121 50.5zM1174 1145q-85 0 -85 -86q0 -85 85 -85t85 85q0 86 -85 86z" />
    <glyph glyph-name="s" unicode="s" 
d="M882 1422q-270 0 -462 -192t-192 -462t192 -462t462 -192t462 192t192 462t-192 462t-462 192zM882 1536q317 0 542.5 -225.5t225.5 -542.5q0 -318 -225.5 -543t-542.5 -225q-318 0 -543 225t-225 543q0 317 225 542.5t543 225.5zM1174 1230q70 0 120.5 -50.5
t50.5 -120.5q0 -71 -50.5 -120.5t-120.5 -49.5q-71 0 -121 49.5t-50 120.5q0 70 50 120.5t121 50.5zM1174 1145q-85 0 -85 -86q0 -85 85 -85t85 85q0 86 -85 86zM590 646q70 0 120.5 -50.5t50.5 -120.5q0 -71 -50.5 -120.5t-120.5 -49.5q-71 0 -121 49.5t-50 120.5
q0 70 50 120.5t121 50.5zM590 561q-85 0 -85 -86q0 -85 85 -85t85 85q0 86 -85 86z" />
    <glyph glyph-name="t" unicode="t" 
d="M114 768q0 317 225 542.5t543 225.5q317 0 542.5 -225.5t225.5 -542.5q0 -318 -225.5 -543t-542.5 -225q-318 0 -543 225t-225 543zM230 825h1304q-22 250 -209.5 423.5t-442.5 173.5q-256 0 -443.5 -173.5t-208.5 -423.5zM1534 711h-595v-595q251 20 426 210
q149 165 169 385zM825 116v595h-595q20 -252 210 -426q165 -150 385 -169z" />
    <glyph glyph-name="u" unicode="u" 
d="M882 1422q-270 0 -462 -192t-192 -462t192 -462t462 -192t462 192t192 462t-192 462t-462 192zM882 1536q317 0 542.5 -225.5t225.5 -542.5q0 -318 -225.5 -543t-542.5 -225q-318 0 -543 225t-225 543q0 317 225 542.5t543 225.5zM882 1351q70 0 120.5 -50.5t50.5 -120.5
q0 -71 -50.5 -120.5t-120.5 -49.5q-71 0 -121 49.5t-50 120.5q0 70 50 120.5t121 50.5zM882 1266q-85 0 -85 -86q0 -85 85 -85t85 85q0 86 -85 86z" />
    <glyph glyph-name="v" unicode="v" 
d="M1536 739q9 257 -153 450l-421 -421l421 -421q143 170 153 392zM853 114q257 -10 450 153l-421 421l-421 -421q170 -144 392 -153zM228 797q-10 -258 153 -450l421 421l-421 421q-144 -171 -153 -392zM911 1422q-258 9 -450 -153l421 -421l421 421q-171 143 -392 153z
M114 768q0 317 225 542.5t543 225.5t543 -225.5t225 -542.5q0 -318 -225.5 -543t-542.5 -225t-542.5 225t-225.5 543zM882 1351q70 0 120.5 -50.5t50.5 -120.5q0 -71 -50.5 -120.5t-120.5 -49.5q-71 0 -121 49.5t-50 120.5q0 70 50 120.5t121 50.5zM882 1266q-85 0 -85 -86
q0 -85 85 -85t85 85q0 86 -85 86z" />
    <glyph glyph-name="w" unicode="w" 
d="M1536 739q9 257 -153 450l-421 -421l421 -421q143 170 153 392zM853 114q257 -10 450 153l-421 421l-421 -421q170 -144 392 -153zM228 797q-10 -258 153 -450l421 421l-421 421q-144 -171 -153 -392zM911 1422q-258 9 -450 -153l421 -421l421 421q-171 143 -392 153z
M114 768q0 317 225 542.5t543 225.5t543 -225.5t225 -542.5q0 -318 -225.5 -543t-542.5 -225t-542.5 225t-225.5 543zM470 939q70 0 120 -50.5t50 -120.5q0 -71 -50 -121t-120 -50q-71 0 -121 50t-50 121q0 70 50 120.5t121 50.5zM470 853q-86 0 -86 -85t86 -85q85 0 85 85
t-85 85zM1294 939q70 0 120.5 -50.5t50.5 -120.5q0 -71 -50.5 -121t-120.5 -50q-71 0 -120.5 50t-49.5 121q0 70 49.5 120.5t120.5 50.5zM1294 853q-85 0 -85 -85t85 -85q86 0 86 85t-86 85z" />
    <glyph glyph-name="x" unicode="x" 
d="M1536 739q9 257 -153 450l-421 -421l421 -421q143 170 153 392zM853 114q257 -10 450 153l-421 421l-421 -421q170 -144 392 -153zM228 797q-10 -258 153 -450l421 421l-421 421q-144 -171 -153 -392zM911 1422q-258 9 -450 -153l421 -421l421 421q-171 143 -392 153z
M114 768q0 317 225 542.5t543 225.5t543 -225.5t225 -542.5q0 -318 -225.5 -543t-542.5 -225t-542.5 225t-225.5 543z" />
    <glyph glyph-name="y" unicode="y" 
d="M1302 267l-921 921q-162 -192 -152.5 -447t191.5 -435q180 -182 435 -191.5t447 152.5zM461 1269l421 -421l421 421q-193 162 -450 153q-222 -10 -392 -153zM1383 1189l-421 -421l421 -421q162 192 153 450q-10 221 -153 392zM114 768q0 317 225 542.5t543 225.5
t543 -225.5t225 -542.5q0 -318 -225.5 -543t-542.5 -225t-542.5 225t-225.5 543z" />
    <glyph glyph-name="z" unicode="z" 
d="M462 267q192 -162 446.5 -152.5t435.5 191.5q181 180 191 435t-152 447zM381 348l921 921q-192 162 -447 152t-435 -191q-182 -181 -191.5 -435.5t152.5 -446.5zM882 0q-317 0 -542 225.5t-226 542.5q0 317 225.5 542t542.5 226q317 -1 542.5 -226t225.5 -542
q-1 -317 -226 -542.5t-542 -225.5z" />
    <glyph glyph-name="braceleft" unicode="{" horiz-adv-x="1252" 
d="M114 0v1280h1024v-1280h-1024zM146 32h960v1216h-960v-1216z" />
    <glyph glyph-name="bar" unicode="|" horiz-adv-x="1252" 
d="M114 0v1280h1024v-1280h-1024zM146 32h960v1216h-960v-1216z" />
    <glyph glyph-name="braceright" unicode="}" horiz-adv-x="1252" 
d="M114 0v1280h1024v-1280h-1024zM146 32h960v1216h-960v-1216z" />
    <glyph glyph-name="asciitilde" unicode="~" 
d="M962 607l-160 161l-161 -161l-81 81l242 241l160 -161l161 161l81 -81z" />
    <glyph glyph-name="Adieresis" unicode="&#xc4;" 
d="M825 939v-342h-114v342h114zM1053 939v-342h-114v342h114zM882 1422q-270 0 -462 -192t-192 -462t192 -462t462 -192t462 192t192 462t-192 462t-462 192zM882 1536q317 0 542.5 -225.5t225.5 -542.5q0 -318 -225.5 -543t-542.5 -225q-318 0 -543 225t-225 543
q0 317 225 542.5t543 225.5zM882 526q70 0 120.5 -50t50.5 -120q0 -71 -50.5 -121t-120.5 -50q-71 0 -121 50t-50 121q0 70 50 120t121 50zM882 441q-85 0 -85 -85q0 -86 85 -86t85 86q0 85 -85 85z" />
    <glyph glyph-name="Aring" unicode="&#xc5;" 
d="M882 939q70 0 120.5 -50.5t50.5 -120.5q0 -71 -50.5 -121t-120.5 -50q-71 0 -121 50t-50 121q0 70 50 120.5t121 50.5zM882 853q-85 0 -85 -85t85 -85t85 85t-85 85zM882 1422q-270 0 -462 -192t-192 -462t192 -462t462 -192t462 192t192 462t-192 462t-462 192z
M882 1536q317 0 542.5 -225.5t225.5 -542.5q0 -318 -225.5 -543t-542.5 -225q-318 0 -543 225t-225 543q0 317 225 542.5t543 225.5zM882 526q70 0 120.5 -50t50.5 -120q0 -71 -50.5 -121t-120.5 -50q-71 0 -121 50t-50 121q0 70 50 120t121 50zM882 441q-85 0 -85 -85
q0 -86 85 -86t85 86q0 85 -85 85z" />
    <glyph glyph-name="Ccedilla" unicode="&#xc7;" 
d="M882 768l-161 161l81 80l241 -241l-241 -241l-81 80zM882 1422q-270 0 -462 -192t-192 -462t192 -462t462 -192t462 192t192 462t-192 462t-462 192zM882 1536q317 0 542.5 -225.5t225.5 -542.5q0 -318 -225.5 -543t-542.5 -225q-318 0 -543 225t-225 543
q0 317 225 542.5t543 225.5zM1294 939q70 0 120.5 -50.5t50.5 -120.5q0 -71 -50.5 -121t-120.5 -50q-71 0 -120.5 50t-49.5 121q0 70 49.5 120.5t120.5 50.5zM1294 853q-85 0 -85 -85t85 -85q86 0 86 85t-86 85z" />
    <glyph glyph-name="Eacute" unicode="&#xc9;" 
d="M962 929l81 -81l-241 -241l-81 81zM1650 768q0 -318 -225.5 -543t-542.5 -225t-542.5 225t-225.5 543q0 317 225 542.5t543 225.5t543 -225.5t225 -542.5zM1422 1138q-37 52 -77 93q-192 191 -463.5 191t-462.5 -191q-41 -41 -77 -93h1080zM1422 398h-1080q36 -53 77 -93
q191 -192 462.5 -192t463.5 192q40 40 77 93zM1486 512q108 256 0 512h-1205q-59 -139 -55 -270t55 -242h1205z" />
    <glyph glyph-name="Ntilde" unicode="&#xd1;" 
d="M381 1188q-162 -192 -152.5 -447t191.5 -435q180 -182 435 -191.5t447 152.5l-500 501l-161 -161l-81 81l161 160zM962 768l161 161l81 -81l-161 -160l340 -340q162 192 152 446.5t-191 435.5t-435.5 191t-446.5 -152zM114 768q0 317 225.5 542t542.5 226
q317 -1 542.5 -226t225.5 -542q-1 -317 -226 -542.5t-542 -225.5t-542 225.5t-226 542.5z" />
    <glyph glyph-name="Odieresis" unicode="&#xd6;" 
d="M825 939v-342h-114v342h114zM1053 939v-342h-114v342h114zM882 1422q-270 0 -462 -192t-192 -462t192 -462t462 -192t462 192t192 462t-192 462t-462 192zM882 1536q317 0 542.5 -225.5t225.5 -542.5q0 -318 -225.5 -543t-542.5 -225q-318 0 -543 225t-225 543
q0 317 225 542.5t543 225.5z" />
    <glyph glyph-name="Udieresis" unicode="&#xdc;" 
d="M825 939v-342h-114v342h114zM1053 939v-342h-114v342h114zM882 1422q-270 0 -462 -192t-192 -462t192 -462t462 -192t462 192t192 462t-192 462t-462 192zM882 1536q317 0 542.5 -225.5t225.5 -542.5q0 -318 -225.5 -543t-542.5 -225q-318 0 -543 225t-225 543
q0 317 225 542.5t543 225.5zM882 1351q70 0 120.5 -50.5t50.5 -120.5q0 -71 -50.5 -120.5t-120.5 -49.5q-71 0 -121 49.5t-50 120.5q0 70 50 120.5t121 50.5zM882 1266q-85 0 -85 -86q0 -85 85 -85t85 85q0 86 -85 86z" />
    <glyph glyph-name="aacute" unicode="&#xe1;" 
d="M882 1422q-270 0 -462 -192t-192 -462t192 -462t462 -192t462 192t192 462t-192 462t-462 192zM882 1536q317 0 542.5 -225.5t225.5 -542.5q0 -318 -225.5 -543t-542.5 -225q-318 0 -543 225t-225 543q0 317 225 542.5t543 225.5zM882 526q70 0 120.5 -50t50.5 -120
q0 -71 -50.5 -121t-120.5 -50q-71 0 -121 50t-50 121q0 70 50 120t121 50zM882 441q-85 0 -85 -85q0 -86 85 -86t85 86q0 85 -85 85zM962 929l81 -81l-241 -241l-81 81z" />
    <glyph glyph-name="agrave" unicode="&#xe0;" 
d="M882 1422q-270 0 -462 -192t-192 -462t192 -462t462 -192t462 192t192 462t-192 462t-462 192zM882 1536q317 0 542.5 -225.5t225.5 -542.5q0 -318 -225.5 -543t-542.5 -225q-318 0 -543 225t-225 543q0 317 225 542.5t543 225.5zM882 526q70 0 120.5 -50t50.5 -120
q0 -71 -50.5 -121t-120.5 -50q-71 0 -121 50t-50 121q0 70 50 120t121 50zM882 441q-85 0 -85 -85q0 -86 85 -86t85 86q0 85 -85 85zM962 607l-241 241l81 81l241 -241z" />
    <glyph glyph-name="acircumflex" unicode="&#xe2;" 
d="M882 1422q-270 0 -462 -192t-192 -462t192 -462t462 -192t462 192t192 462t-192 462t-462 192zM882 1536q317 0 542.5 -225.5t225.5 -542.5q0 -318 -225.5 -543t-542.5 -225q-318 0 -543 225t-225 543q0 317 225 542.5t543 225.5zM882 526q70 0 120.5 -50t50.5 -120
q0 -71 -50.5 -121t-120.5 -50q-71 0 -121 50t-50 121q0 70 50 120t121 50zM882 441q-85 0 -85 -85q0 -86 85 -86t85 86q0 85 -85 85zM882 768l-161 -161l-80 81l241 241l241 -241l-80 -81z" />
    <glyph glyph-name="adieresis" unicode="&#xe4;" 
d="M882 1422q-270 0 -462 -192t-192 -462t192 -462t462 -192t462 192t192 462t-192 462t-462 192zM882 1536q317 0 542.5 -225.5t225.5 -542.5q0 -318 -225.5 -543t-542.5 -225q-318 0 -543 225t-225 543q0 317 225 542.5t543 225.5zM882 526q70 0 120.5 -50t50.5 -120
q0 -71 -50.5 -121t-120.5 -50q-71 0 -121 50t-50 121q0 70 50 120t121 50zM882 441q-85 0 -85 -85q0 -86 85 -86t85 86q0 85 -85 85zM825 939v-342h-114v342h114zM1053 939v-342h-114v342h114z" />
    <glyph glyph-name="atilde" unicode="&#xe3;" 
d="M882 1422q-270 0 -462 -192t-192 -462t192 -462t462 -192t462 192t192 462t-192 462t-462 192zM882 1536q317 0 542.5 -225.5t225.5 -542.5q0 -318 -225.5 -543t-542.5 -225q-318 0 -543 225t-225 543q0 317 225 542.5t543 225.5zM882 526q70 0 120.5 -50t50.5 -120
q0 -71 -50.5 -121t-120.5 -50q-71 0 -121 50t-50 121q0 70 50 120t121 50zM882 441q-85 0 -85 -85q0 -86 85 -86t85 86q0 85 -85 85zM962 607l-160 161l-161 -161l-81 81l242 241l160 -161l161 161l81 -81z" />
    <glyph glyph-name="aring" unicode="&#xe5;" 
d="M882 1422q-270 0 -462 -192t-192 -462t192 -462t462 -192t462 192t192 462t-192 462t-462 192zM882 1536q317 0 542.5 -225.5t225.5 -542.5q0 -318 -225.5 -543t-542.5 -225q-318 0 -543 225t-225 543q0 317 225 542.5t543 225.5zM882 526q70 0 120.5 -50t50.5 -120
q0 -71 -50.5 -121t-120.5 -50q-71 0 -121 50t-50 121q0 70 50 120t121 50zM882 441q-85 0 -85 -85q0 -86 85 -86t85 86q0 85 -85 85zM882 939q70 0 120.5 -50.5t50.5 -120.5q0 -71 -50.5 -121t-120.5 -50q-71 0 -121 50t-50 121q0 70 50 120.5t121 50.5zM882 853
q-85 0 -85 -85t85 -85t85 85t-85 85z" />
    <glyph glyph-name="ccedilla" unicode="&#xe7;" 
d="M882 1422q-270 0 -462 -192t-192 -462t192 -462t462 -192t462 192t192 462t-192 462t-462 192zM882 1536q317 0 542.5 -225.5t225.5 -542.5q0 -318 -225.5 -543t-542.5 -225q-318 0 -543 225t-225 543q0 317 225 542.5t543 225.5zM1294 939q70 0 120.5 -50.5t50.5 -120.5
q0 -71 -50.5 -121t-120.5 -50q-71 0 -120.5 50t-49.5 121q0 70 49.5 120.5t120.5 50.5zM1294 853q-85 0 -85 -85t85 -85q86 0 86 85t-86 85zM882 768l-161 161l81 80l241 -241l-241 -241l-81 80z" />
    <glyph glyph-name="eacute" unicode="&#xe9;" 
d="M1650 768q0 -318 -225.5 -543t-542.5 -225t-542.5 225t-225.5 543q0 317 225 542.5t543 225.5t543 -225.5t225 -542.5zM1422 1138q-37 52 -77 93q-192 191 -463.5 191t-462.5 -191q-41 -41 -77 -93h1080zM1422 398h-1080q36 -53 77 -93q191 -192 462.5 -192t463.5 192
q40 40 77 93zM1486 512q108 256 0 512h-1205q-59 -139 -55 -270t55 -242h1205zM962 929l81 -81l-241 -241l-81 81z" />
    <glyph glyph-name="egrave" unicode="&#xe8;" 
d="M1650 768q0 -318 -225.5 -543t-542.5 -225t-542.5 225t-225.5 543q0 317 225 542.5t543 225.5t543 -225.5t225 -542.5zM1422 1138q-37 52 -77 93q-192 191 -463.5 191t-462.5 -191q-41 -41 -77 -93h1080zM1422 398h-1080q36 -53 77 -93q191 -192 462.5 -192t463.5 192
q40 40 77 93zM1486 512q108 256 0 512h-1205q-59 -139 -55 -270t55 -242h1205zM962 607l-241 241l81 81l241 -241z" />
    <glyph glyph-name="ecircumflex" unicode="&#xea;" 
d="M1650 768q0 -318 -225.5 -543t-542.5 -225t-542.5 225t-225.5 543q0 317 225 542.5t543 225.5t543 -225.5t225 -542.5zM1422 1138q-37 52 -77 93q-192 191 -463.5 191t-462.5 -191q-41 -41 -77 -93h1080zM1422 398h-1080q36 -53 77 -93q191 -192 462.5 -192t463.5 192
q40 40 77 93zM1486 512q108 256 0 512h-1205q-59 -139 -55 -270t55 -242h1205zM882 768l-161 -161l-80 81l241 241l241 -241l-80 -81z" />
    <glyph glyph-name="edieresis" unicode="&#xeb;" 
d="M1650 768q0 -318 -225.5 -543t-542.5 -225t-542.5 225t-225.5 543q0 317 225 542.5t543 225.5t543 -225.5t225 -542.5zM1422 1138q-37 52 -77 93q-192 191 -463.5 191t-462.5 -191q-41 -41 -77 -93h1080zM1422 398h-1080q36 -53 77 -93q191 -192 462.5 -192t463.5 192
q40 40 77 93zM1486 512q108 256 0 512h-1205q-59 -139 -55 -270t55 -242h1205zM825 939v-342h-114v342h114zM1053 939v-342h-114v342h114z" />
    <glyph glyph-name="iacute" unicode="&#xed;" 
d="M825 1420q-251 -22 -424 -209.5t-173 -442.5q0 -256 173 -443.5t424 -208.5v1304zM939 1420v-1304q250 21 423.5 208.5t173.5 443.5q0 255 -173.5 442.5t-423.5 209.5zM882 1536q317 0 542.5 -225.5t225.5 -542.5q0 -318 -225.5 -543t-542.5 -225q-318 0 -543 225
t-225 543q0 317 225 542.5t543 225.5zM612 929l81 -81l-241 -241l-81 81z" />
    <glyph glyph-name="igrave" unicode="&#xec;" 
d="M825 1420q-251 -22 -424 -209.5t-173 -442.5q0 -256 173 -443.5t424 -208.5v1304zM939 1420v-1304q250 21 423.5 208.5t173.5 443.5q0 255 -173.5 442.5t-423.5 209.5zM882 1536q317 0 542.5 -225.5t225.5 -542.5q0 -318 -225.5 -543t-542.5 -225q-318 0 -543 225
t-225 543q0 317 225 542.5t543 225.5zM612 607l-241 241l81 81l241 -241z" />
    <glyph glyph-name="icircumflex" unicode="&#xee;" 
d="M825 1420q-251 -22 -424 -209.5t-173 -442.5q0 -256 173 -443.5t424 -208.5v1304zM939 1420v-1304q250 21 423.5 208.5t173.5 443.5q0 255 -173.5 442.5t-423.5 209.5zM882 1536q317 0 542.5 -225.5t225.5 -542.5q0 -318 -225.5 -543t-542.5 -225q-318 0 -543 225
t-225 543q0 317 225 542.5t543 225.5zM532 768l-161 -161l-80 81l241 241l241 -241l-80 -81z" />
    <glyph glyph-name="idieresis" unicode="&#xef;" 
d="M825 1420q-251 -22 -424 -209.5t-173 -442.5q0 -256 173 -443.5t424 -208.5v1304zM939 1420v-1304q250 21 423.5 208.5t173.5 443.5q0 255 -173.5 442.5t-423.5 209.5zM882 1536q317 0 542.5 -225.5t225.5 -542.5q0 -318 -225.5 -543t-542.5 -225q-318 0 -543 225
t-225 543q0 317 225 542.5t543 225.5zM689 939v-342h-114v342h114zM1189 939v-342h-114v342h114z" />
    <glyph glyph-name="ntilde" unicode="&#xf1;" 
d="M381 1188q-162 -192 -152.5 -447t191.5 -435q180 -182 435 -191.5t447 152.5l-500 501l-161 -161l-81 81l161 160zM962 768l161 161l81 -81l-161 -160l340 -340q162 192 152 446.5t-191 435.5t-435.5 191t-446.5 -152zM114 768q0 317 225.5 542t542.5 226
q317 -1 542.5 -226t225.5 -542q-1 -317 -226 -542.5t-542 -225.5t-542 225.5t-226 542.5z" />
    <glyph glyph-name="oacute" unicode="&#xf3;" 
d="M882 1422q-270 0 -462 -192t-192 -462t192 -462t462 -192t462 192t192 462t-192 462t-462 192zM882 1536q317 0 542.5 -225.5t225.5 -542.5q0 -318 -225.5 -543t-542.5 -225q-318 0 -543 225t-225 543q0 317 225 542.5t543 225.5zM962 929l81 -81l-241 -241l-81 81z" />
    <glyph glyph-name="ograve" unicode="&#xf2;" 
d="M882 1422q-270 0 -462 -192t-192 -462t192 -462t462 -192t462 192t192 462t-192 462t-462 192zM882 1536q317 0 542.5 -225.5t225.5 -542.5q0 -318 -225.5 -543t-542.5 -225q-318 0 -543 225t-225 543q0 317 225 542.5t543 225.5zM962 607l-241 241l81 81l241 -241z" />
    <glyph glyph-name="ocircumflex" unicode="&#xf4;" 
d="M882 1422q-270 0 -462 -192t-192 -462t192 -462t462 -192t462 192t192 462t-192 462t-462 192zM882 1536q317 0 542.5 -225.5t225.5 -542.5q0 -318 -225.5 -543t-542.5 -225q-318 0 -543 225t-225 543q0 317 225 542.5t543 225.5zM882 768l-161 -161l-80 81l241 241
l241 -241l-80 -81z" />
    <glyph glyph-name="odieresis" unicode="&#xf6;" 
d="M882 1422q-270 0 -462 -192t-192 -462t192 -462t462 -192t462 192t192 462t-192 462t-462 192zM882 1536q317 0 542.5 -225.5t225.5 -542.5q0 -318 -225.5 -543t-542.5 -225q-318 0 -543 225t-225 543q0 317 225 542.5t543 225.5zM825 939v-342h-114v342h114zM1053 939
v-342h-114v342h114z" />
    <glyph glyph-name="otilde" unicode="&#xf5;" 
d="M882 1422q-270 0 -462 -192t-192 -462t192 -462t462 -192t462 192t192 462t-192 462t-462 192zM882 1536q317 0 542.5 -225.5t225.5 -542.5q0 -318 -225.5 -543t-542.5 -225q-318 0 -543 225t-225 543q0 317 225 542.5t543 225.5zM962 607l-160 161l-161 -161l-81 81
l242 241l160 -161l161 161l81 -81z" />
    <glyph glyph-name="uacute" unicode="&#xfa;" 
d="M882 1422q-270 0 -462 -192t-192 -462t192 -462t462 -192t462 192t192 462t-192 462t-462 192zM882 1536q317 0 542.5 -225.5t225.5 -542.5q0 -318 -225.5 -543t-542.5 -225q-318 0 -543 225t-225 543q0 317 225 542.5t543 225.5zM882 1351q70 0 120.5 -50.5t50.5 -120.5
q0 -71 -50.5 -120.5t-120.5 -49.5q-71 0 -121 49.5t-50 120.5q0 70 50 120.5t121 50.5zM882 1266q-85 0 -85 -86q0 -85 85 -85t85 85q0 86 -85 86zM962 929l81 -81l-241 -241l-81 81z" />
    <glyph glyph-name="ugrave" unicode="&#xf9;" 
d="M882 1422q-270 0 -462 -192t-192 -462t192 -462t462 -192t462 192t192 462t-192 462t-462 192zM882 1536q317 0 542.5 -225.5t225.5 -542.5q0 -318 -225.5 -543t-542.5 -225q-318 0 -543 225t-225 543q0 317 225 542.5t543 225.5zM882 1351q70 0 120.5 -50.5t50.5 -120.5
q0 -71 -50.5 -120.5t-120.5 -49.5q-71 0 -121 49.5t-50 120.5q0 70 50 120.5t121 50.5zM882 1266q-85 0 -85 -86q0 -85 85 -85t85 85q0 86 -85 86zM962 607l-241 241l81 81l241 -241z" />
    <glyph glyph-name="ucircumflex" unicode="&#xfb;" 
d="M882 1422q-270 0 -462 -192t-192 -462t192 -462t462 -192t462 192t192 462t-192 462t-462 192zM882 1536q317 0 542.5 -225.5t225.5 -542.5q0 -318 -225.5 -543t-542.5 -225q-318 0 -543 225t-225 543q0 317 225 542.5t543 225.5zM882 1351q70 0 120.5 -50.5t50.5 -120.5
q0 -71 -50.5 -120.5t-120.5 -49.5q-71 0 -121 49.5t-50 120.5q0 70 50 120.5t121 50.5zM882 1266q-85 0 -85 -86q0 -85 85 -85t85 85q0 86 -85 86zM882 768l-161 -161l-80 81l241 241l241 -241l-80 -81z" />
    <glyph glyph-name="udieresis" unicode="&#xfc;" 
d="M882 1422q-270 0 -462 -192t-192 -462t192 -462t462 -192t462 192t192 462t-192 462t-462 192zM882 1536q317 0 542.5 -225.5t225.5 -542.5q0 -318 -225.5 -543t-542.5 -225q-318 0 -543 225t-225 543q0 317 225 542.5t543 225.5zM882 1351q70 0 120.5 -50.5t50.5 -120.5
q0 -71 -50.5 -120.5t-120.5 -49.5q-71 0 -121 49.5t-50 120.5q0 70 50 120.5t121 50.5zM882 1266q-85 0 -85 -86q0 -85 85 -85t85 85q0 86 -85 86zM825 939v-342h-114v342h114zM1053 939v-342h-114v342h114z" />
    <glyph glyph-name="dagger" unicode="&#x2020;" horiz-adv-x="1252" 
d="M114 0v1280h1024v-1280h-1024zM146 32h960v1216h-960v-1216z" />
    <glyph glyph-name="degree" unicode="&#xb0;" horiz-adv-x="570" 
d="M285 1351q70 0 120.5 -50.5t50.5 -120.5q0 -71 -50.5 -120.5t-120.5 -49.5q-71 0 -121 49.5t-50 120.5q0 70 50 120.5t121 50.5zM285 1266q-85 0 -85 -86q0 -85 85 -85t85 85q0 86 -85 86z" />
    <glyph glyph-name="cent" unicode="&#xa2;" horiz-adv-x="1252" 
d="M114 0v1280h1024v-1280h-1024zM146 32h960v1216h-960v-1216z" />
    <glyph glyph-name="sterling" unicode="&#xa3;" horiz-adv-x="1252" 
d="M114 0v1280h1024v-1280h-1024zM146 32h960v1216h-960v-1216z" />
    <glyph glyph-name="section" unicode="&#xa7;" horiz-adv-x="1252" 
d="M114 0v1280h1024v-1280h-1024zM146 32h960v1216h-960v-1216z" />
    <glyph glyph-name="bullet" unicode="&#x2022;" horiz-adv-x="570" 
d="M882 939q70 0 120.5 -50.5t50.5 -120.5q0 -71 -50.5 -121t-120.5 -50q-71 0 -121 50t-50 121q0 70 50 120.5t121 50.5z" />
    <glyph glyph-name="paragraph" unicode="&#xb6;" horiz-adv-x="1252" 
d="M114 0v1280h1024v-1280h-1024zM146 32h960v1216h-960v-1216z" />
    <glyph glyph-name="germandbls" unicode="&#xdf;" horiz-adv-x="1252" 
d="M114 0v1280h1024v-1280h-1024zM146 32h960v1216h-960v-1216z" />
    <glyph glyph-name="registered" unicode="&#xae;" horiz-adv-x="1252" 
d="M114 0v1280h1024v-1280h-1024zM146 32h960v1216h-960v-1216z" />
    <glyph glyph-name="copyright" unicode="&#xa9;" horiz-adv-x="1252" 
d="M114 0v1280h1024v-1280h-1024zM146 32h960v1216h-960v-1216z" />
    <glyph glyph-name="trademark" unicode="&#x2122;" horiz-adv-x="1252" 
d="M114 0v1280h1024v-1280h-1024zM146 32h960v1216h-960v-1216z" />
    <glyph glyph-name="acute" unicode="&#xb4;" 
d="M962 929l81 -81l-241 -241l-81 81z" />
    <glyph glyph-name="dieresis" unicode="&#xa8;" 
d="M825 939v-342h-114v342h114zM1053 939v-342h-114v342h114z" />
    <glyph glyph-name="AE" unicode="&#xc6;" horiz-adv-x="1252" 
d="M114 0v1280h1024v-1280h-1024zM146 32h960v1216h-960v-1216z" />
    <glyph glyph-name="Oslash" unicode="&#xd8;" 
d="M882 1536q317 0 542.5 -225.5t225.5 -542.5q0 -318 -225.5 -543t-542.5 -225q-318 0 -543 225t-225 543q0 317 225 542.5t543 225.5zM882 1422q-256 0 -443.5 -173.5t-208.5 -423.5h595v-114h-595q21 -251 208.5 -424t443.5 -173q270 0 462 192t192 462t-192 462
t-462 192z" />
    <glyph glyph-name="plusminus" unicode="&#xb1;" horiz-adv-x="1252" 
d="M114 0v1280h1024v-1280h-1024zM146 32h960v1216h-960v-1216z" />
    <glyph glyph-name="yen" unicode="&#xa5;" horiz-adv-x="1252" 
d="M114 0v1280h1024v-1280h-1024zM146 32h960v1216h-960v-1216z" />
    <glyph glyph-name="mu1" unicode="&#xb5;" horiz-adv-x="1252" 
d="M114 0v1280h1024v-1280h-1024zM146 32h960v1216h-960v-1216z" />
    <glyph glyph-name="ordfeminine" unicode="&#xaa;" horiz-adv-x="1252" 
d="M114 0v1280h1024v-1280h-1024zM146 32h960v1216h-960v-1216z" />
    <glyph glyph-name="ordmasculine" unicode="&#xba;" horiz-adv-x="1252" 
d="M114 0v1280h1024v-1280h-1024zM146 32h960v1216h-960v-1216z" />
    <glyph glyph-name="ae" unicode="&#xe6;" horiz-adv-x="1252" 
d="M114 0v1280h1024v-1280h-1024zM146 32h960v1216h-960v-1216z" />
    <glyph glyph-name="oslash" unicode="&#xf8;" 
d="M882 1536q317 0 542.5 -225.5t225.5 -542.5q0 -318 -225.5 -543t-542.5 -225q-318 0 -543 225t-225 543q0 317 225 542.5t543 225.5zM882 1422q-256 0 -443.5 -173.5t-208.5 -423.5h595v-114h-595q21 -251 208.5 -424t443.5 -173q270 0 462 192t192 462t-192 462
t-462 192z" />
    <glyph glyph-name="questiondown" unicode="&#xbf;" horiz-adv-x="1174" 
d="M678 1130q1 -36 1 -54q0 -106 -30 -183q-22 -58 -71 -117q-36 -43 -129.5 -125.5t-121.5 -131.5t-28 -107q0 -105 82 -184.5t201 -79.5q115 0 192 72t101 225l185 -22q-25 -205 -148.5 -314t-326.5 -109q-215 0 -343 117t-128 283q0 96 45 177t176 197q88 78 115 115
t40 85t15 156h173zM689 1491v-205h-205v205h205z" />
    <glyph glyph-name="exclamdown" unicode="&#xa1;" horiz-adv-x="451" 
d="M282 1102l55 -777v-325h-223v325l52 777h116zM329 1466v-205h-207v205h207z" />
    <glyph glyph-name="logicalnot" unicode="&#xac;" horiz-adv-x="1252" 
d="M114 0v1280h1024v-1280h-1024zM146 32h960v1216h-960v-1216z" />
    <glyph glyph-name="florin" unicode="&#x192;" horiz-adv-x="1252" 
d="M114 0v1280h1024v-1280h-1024zM146 32h960v1216h-960v-1216z" />
    <glyph glyph-name="guillemotleft" unicode="&#xab;" horiz-adv-x="1252" 
d="M114 0v1280h1024v-1280h-1024zM146 32h960v1216h-960v-1216z" />
    <glyph glyph-name="guillemotright" unicode="&#xbb;" horiz-adv-x="1252" 
d="M114 0v1280h1024v-1280h-1024zM146 32h960v1216h-960v-1216z" />
    <glyph glyph-name="ellipsis" unicode="&#x2026;" horiz-adv-x="1287" 
d="M114 0v205h205v-205h-205zM541 0v205h205v-205h-205zM967 0v205h206v-205h-206z" />
    <glyph glyph-name="Agrave" unicode="&#xc0;" 
d="M962 607l-241 241l81 81l241 -241zM882 1422q-270 0 -462 -192t-192 -462t192 -462t462 -192t462 192t192 462t-192 462t-462 192zM882 1536q317 0 542.5 -225.5t225.5 -542.5q0 -318 -225.5 -543t-542.5 -225q-318 0 -543 225t-225 543q0 317 225 542.5t543 225.5z
M882 526q70 0 120.5 -50t50.5 -120q0 -71 -50.5 -121t-120.5 -50q-71 0 -121 50t-50 121q0 70 50 120t121 50zM882 441q-85 0 -85 -85q0 -86 85 -86t85 86q0 85 -85 85z" />
    <glyph glyph-name="Atilde" unicode="&#xc3;" 
d="M962 607l-160 161l-161 -161l-81 81l242 241l160 -161l161 161l81 -81zM882 1422q-270 0 -462 -192t-192 -462t192 -462t462 -192t462 192t192 462t-192 462t-462 192zM882 1536q317 0 542.5 -225.5t225.5 -542.5q0 -318 -225.5 -543t-542.5 -225q-318 0 -543 225
t-225 543q0 317 225 542.5t543 225.5zM882 526q70 0 120.5 -50t50.5 -120q0 -71 -50.5 -121t-120.5 -50q-71 0 -121 50t-50 121q0 70 50 120t121 50zM882 441q-85 0 -85 -85q0 -86 85 -86t85 86q0 85 -85 85z" />
    <glyph glyph-name="Otilde" unicode="&#xd5;" 
d="M962 607l-160 161l-161 -161l-81 81l242 241l160 -161l161 161l81 -81zM882 1422q-270 0 -462 -192t-192 -462t192 -462t462 -192t462 192t192 462t-192 462t-462 192zM882 1536q317 0 542.5 -225.5t225.5 -542.5q0 -318 -225.5 -543t-542.5 -225q-318 0 -543 225
t-225 543q0 317 225 542.5t543 225.5z" />
    <glyph glyph-name="OE" unicode="&#x152;" horiz-adv-x="1252" 
d="M114 0v1280h1024v-1280h-1024zM146 32h960v1216h-960v-1216z" />
    <glyph glyph-name="oe" unicode="&#x153;" horiz-adv-x="1252" 
d="M114 0v1280h1024v-1280h-1024zM146 32h960v1216h-960v-1216z" />
    <glyph glyph-name="endash" unicode="&#x2013;" horiz-adv-x="1252" 
d="M114 0v1280h1024v-1280h-1024zM146 32h960v1216h-960v-1216z" />
    <glyph glyph-name="emdash" unicode="&#x2014;" horiz-adv-x="1252" 
d="M114 0v1280h1024v-1280h-1024zM146 32h960v1216h-960v-1216z" />
    <glyph glyph-name="quotedblleft" unicode="&#x201c;" horiz-adv-x="747" 
d="M307 1220v-209h-193v165q0 134 32 194q42 80 133 121l44 -70q-55 -23 -81 -68.5t-29 -132.5h94zM617 1220v-209h-193v165q0 134 32 194q42 80 133 121l44 -70q-55 -23 -81 -68.5t-29 -132.5h94z" />
    <glyph glyph-name="quotedblright" unicode="&#x201d;" horiz-adv-x="747" 
d="M130 1272v209h193v-165q0 -134 -31 -193q-43 -81 -134 -122l-44 71q54 22 80.5 69.5t29.5 130.5h-94zM440 1272v209h193v-165q0 -134 -31 -193q-43 -81 -134 -122l-44 71q54 22 80.5 69.5t29.5 130.5h-94z" />
    <glyph glyph-name="quoteleft" unicode="&#x2018;" horiz-adv-x="437" 
d="M307 1220v-209h-193v165q0 134 32 194q42 80 133 121l44 -70q-55 -23 -81 -68.5t-29 -132.5h94z" />
    <glyph glyph-name="quoteright" unicode="&#x2019;" horiz-adv-x="437" 
d="M130 1272v209h193v-165q0 -134 -31 -193q-43 -81 -134 -122l-44 71q54 22 80.5 69.5t29.5 130.5h-94z" />
    <glyph glyph-name="divide" unicode="&#xf7;" horiz-adv-x="1252" 
d="M114 0v1280h1024v-1280h-1024zM146 32h960v1216h-960v-1216z" />
    <glyph glyph-name="ydieresis" unicode="&#xff;" 
d="M1302 267l-921 921q-162 -192 -152.5 -447t191.5 -435q180 -182 435 -191.5t447 152.5zM461 1269l421 -421l421 421q-193 162 -450 153q-222 -10 -392 -153zM1383 1189l-421 -421l421 -421q162 192 153 450q-10 221 -153 392zM114 768q0 317 225 542.5t543 225.5
t543 -225.5t225 -542.5q0 -318 -225.5 -543t-542.5 -225t-542.5 225t-225.5 543zM825 1374v-342h-114v342h114zM1053 1374v-342h-114v342h114z" />
    <glyph glyph-name="Ydieresis" unicode="&#x178;" 
d="M825 1374v-342h-114v342h114zM1053 1374v-342h-114v342h114zM1302 267l-921 921q-162 -192 -152.5 -447t191.5 -435q180 -182 435 -191.5t447 152.5zM461 1269l421 -421l421 421q-193 162 -450 153q-222 -10 -392 -153zM1383 1189l-421 -421l421 -421q162 192 153 450
q-10 221 -153 392zM114 768q0 317 225 542.5t543 225.5t543 -225.5t225 -542.5q0 -318 -225.5 -543t-542.5 -225t-542.5 225t-225.5 543z" />
    <glyph glyph-name="Euro" unicode="&#x20ac;" horiz-adv-x="1252" 
d="M114 0v1280h1024v-1280h-1024zM146 32h960v1216h-960v-1216z" />
    <glyph glyph-name="guilsinglleft" unicode="&#x2039;" horiz-adv-x="1252" 
d="M114 0v1280h1024v-1280h-1024zM146 32h960v1216h-960v-1216z" />
    <glyph glyph-name="guilsinglright" unicode="&#x203a;" horiz-adv-x="1252" 
d="M114 0v1280h1024v-1280h-1024zM146 32h960v1216h-960v-1216z" />
    <glyph glyph-name="daggerdbl" unicode="&#x2021;" horiz-adv-x="1252" 
d="M114 0v1280h1024v-1280h-1024zM146 32h960v1216h-960v-1216z" />
    <glyph glyph-name="periodcentered" unicode="&#xb7;" horiz-adv-x="433" 
d="M114 670v205h205v-205h-205z" />
    <glyph glyph-name="periodcentered" unicode="&#x2219;" horiz-adv-x="433" 
d="M114 670v205h205v-205h-205z" />
    <glyph glyph-name="quotesinglbase" unicode="&#x201a;" horiz-adv-x="437" 
d="M130 0v209h193v-165q0 -134 -31 -193q-43 -81 -134 -122l-44 71q54 22 80.5 69.5t29.5 130.5h-94z" />
    <glyph glyph-name="quotedblbase" unicode="&#x201e;" horiz-adv-x="747" 
d="M130 0v209h193v-165q0 -134 -31 -193q-43 -81 -134 -122l-44 71q54 22 80.5 69.5t29.5 130.5h-94zM440 0v209h193v-165q0 -134 -31 -193q-43 -81 -134 -122l-44 71q54 22 80.5 69.5t29.5 130.5h-94z" />
    <glyph glyph-name="perthousand" unicode="&#x2030;" horiz-adv-x="1252" 
d="M114 0v1280h1024v-1280h-1024zM146 32h960v1216h-960v-1216z" />
    <glyph glyph-name="Acircumflex" unicode="&#xc2;" 
d="M882 768l-161 -161l-80 81l241 241l241 -241l-80 -81zM882 1422q-270 0 -462 -192t-192 -462t192 -462t462 -192t462 192t192 462t-192 462t-462 192zM882 1536q317 0 542.5 -225.5t225.5 -542.5q0 -318 -225.5 -543t-542.5 -225q-318 0 -543 225t-225 543
q0 317 225 542.5t543 225.5zM882 526q70 0 120.5 -50t50.5 -120q0 -71 -50.5 -121t-120.5 -50q-71 0 -121 50t-50 121q0 70 50 120t121 50zM882 441q-85 0 -85 -85q0 -86 85 -86t85 86q0 85 -85 85z" />
    <glyph glyph-name="Ecircumflex" unicode="&#xca;" 
d="M882 768l-161 -161l-80 81l241 241l241 -241l-80 -81zM1650 768q0 -318 -225.5 -543t-542.5 -225t-542.5 225t-225.5 543q0 317 225 542.5t543 225.5t543 -225.5t225 -542.5zM1422 1138q-37 52 -77 93q-192 191 -463.5 191t-462.5 -191q-41 -41 -77 -93h1080zM1422 398
h-1080q36 -53 77 -93q191 -192 462.5 -192t463.5 192q40 40 77 93zM1486 512q108 256 0 512h-1205q-59 -139 -55 -270t55 -242h1205z" />
    <glyph glyph-name="Aacute" unicode="&#xc1;" 
d="M962 929l81 -81l-241 -241l-81 81zM882 1422q-270 0 -462 -192t-192 -462t192 -462t462 -192t462 192t192 462t-192 462t-462 192zM882 1536q317 0 542.5 -225.5t225.5 -542.5q0 -318 -225.5 -543t-542.5 -225q-318 0 -543 225t-225 543q0 317 225 542.5t543 225.5z
M882 526q70 0 120.5 -50t50.5 -120q0 -71 -50.5 -121t-120.5 -50q-71 0 -121 50t-50 121q0 70 50 120t121 50zM882 441q-85 0 -85 -85q0 -86 85 -86t85 86q0 85 -85 85z" />
    <glyph glyph-name="Edieresis" unicode="&#xcb;" 
d="M825 939v-342h-114v342h114zM1053 939v-342h-114v342h114zM1650 768q0 -318 -225.5 -543t-542.5 -225t-542.5 225t-225.5 543q0 317 225 542.5t543 225.5t543 -225.5t225 -542.5zM1422 1138q-37 52 -77 93q-192 191 -463.5 191t-462.5 -191q-41 -41 -77 -93h1080z
M1422 398h-1080q36 -53 77 -93q191 -192 462.5 -192t463.5 192q40 40 77 93zM1486 512q108 256 0 512h-1205q-59 -139 -55 -270t55 -242h1205z" />
    <glyph glyph-name="Egrave" unicode="&#xc8;" 
d="M962 607l-241 241l81 81l241 -241zM1650 768q0 -318 -225.5 -543t-542.5 -225t-542.5 225t-225.5 543q0 317 225 542.5t543 225.5t543 -225.5t225 -542.5zM1422 1138q-37 52 -77 93q-192 191 -463.5 191t-462.5 -191q-41 -41 -77 -93h1080zM1422 398h-1080q36 -53 77 -93
q191 -192 462.5 -192t463.5 192q40 40 77 93zM1486 512q108 256 0 512h-1205q-59 -139 -55 -270t55 -242h1205z" />
    <glyph glyph-name="Iacute" unicode="&#xcd;" 
d="M612 929l81 -81l-241 -241l-81 81zM825 1420q-251 -22 -424 -209.5t-173 -442.5q0 -256 173 -443.5t424 -208.5v1304zM939 1420v-1304q250 21 423.5 208.5t173.5 443.5q0 255 -173.5 442.5t-423.5 209.5zM882 1536q317 0 542.5 -225.5t225.5 -542.5q0 -318 -225.5 -543
t-542.5 -225q-318 0 -543 225t-225 543q0 317 225 542.5t543 225.5z" />
    <glyph glyph-name="Icircumflex" unicode="&#xce;" 
d="M532 768l-161 -161l-80 81l241 241l241 -241l-80 -81zM825 1420q-251 -22 -424 -209.5t-173 -442.5q0 -256 173 -443.5t424 -208.5v1304zM939 1420v-1304q250 21 423.5 208.5t173.5 443.5q0 255 -173.5 442.5t-423.5 209.5zM882 1536q317 0 542.5 -225.5t225.5 -542.5
q0 -318 -225.5 -543t-542.5 -225q-318 0 -543 225t-225 543q0 317 225 542.5t543 225.5z" />
    <glyph glyph-name="Idieresis" unicode="&#xcf;" 
d="M1189 939v-342h-114v342h114zM689 939v-342h-114v342h114zM825 1420q-251 -22 -424 -209.5t-173 -442.5q0 -256 173 -443.5t424 -208.5v1304zM939 1420v-1304q250 21 423.5 208.5t173.5 443.5q0 255 -173.5 442.5t-423.5 209.5zM882 1536q317 0 542.5 -225.5
t225.5 -542.5q0 -318 -225.5 -543t-542.5 -225q-318 0 -543 225t-225 543q0 317 225 542.5t543 225.5z" />
    <glyph glyph-name="Igrave" unicode="&#xcc;" 
d="M612 607l-241 241l81 81l241 -241zM825 1420q-251 -22 -424 -209.5t-173 -442.5q0 -256 173 -443.5t424 -208.5v1304zM939 1420v-1304q250 21 423.5 208.5t173.5 443.5q0 255 -173.5 442.5t-423.5 209.5zM882 1536q317 0 542.5 -225.5t225.5 -542.5q0 -318 -225.5 -543
t-542.5 -225q-318 0 -543 225t-225 543q0 317 225 542.5t543 225.5z" />
    <glyph glyph-name="Oacute" unicode="&#xd3;" 
d="M962 929l81 -81l-241 -241l-81 81zM882 1422q-270 0 -462 -192t-192 -462t192 -462t462 -192t462 192t192 462t-192 462t-462 192zM882 1536q317 0 542.5 -225.5t225.5 -542.5q0 -318 -225.5 -543t-542.5 -225q-318 0 -543 225t-225 543q0 317 225 542.5t543 225.5z" />
    <glyph glyph-name="Ocircumflex" unicode="&#xd4;" 
d="M882 768l-161 -161l-80 81l241 241l241 -241l-80 -81zM882 1422q-270 0 -462 -192t-192 -462t192 -462t462 -192t462 192t192 462t-192 462t-462 192zM882 1536q317 0 542.5 -225.5t225.5 -542.5q0 -318 -225.5 -543t-542.5 -225q-318 0 -543 225t-225 543
q0 317 225 542.5t543 225.5z" />
    <glyph glyph-name="Ograve" unicode="&#xd2;" 
d="M962 607l-241 241l81 81l241 -241zM882 1422q-270 0 -462 -192t-192 -462t192 -462t462 -192t462 192t192 462t-192 462t-462 192zM882 1536q317 0 542.5 -225.5t225.5 -542.5q0 -318 -225.5 -543t-542.5 -225q-318 0 -543 225t-225 543q0 317 225 542.5t543 225.5z" />
    <glyph glyph-name="Uacute" unicode="&#xda;" 
d="M962 929l81 -81l-241 -241l-81 81zM882 1422q-270 0 -462 -192t-192 -462t192 -462t462 -192t462 192t192 462t-192 462t-462 192zM882 1536q317 0 542.5 -225.5t225.5 -542.5q0 -318 -225.5 -543t-542.5 -225q-318 0 -543 225t-225 543q0 317 225 542.5t543 225.5z
M882 1351q70 0 120.5 -50.5t50.5 -120.5q0 -71 -50.5 -120.5t-120.5 -49.5q-71 0 -121 49.5t-50 120.5q0 70 50 120.5t121 50.5zM882 1266q-85 0 -85 -86q0 -85 85 -85t85 85q0 86 -85 86z" />
    <glyph glyph-name="Ucircumflex" unicode="&#xdb;" 
d="M882 768l-161 -161l-80 81l241 241l241 -241l-80 -81zM882 1422q-270 0 -462 -192t-192 -462t192 -462t462 -192t462 192t192 462t-192 462t-462 192zM882 1536q317 0 542.5 -225.5t225.5 -542.5q0 -318 -225.5 -543t-542.5 -225q-318 0 -543 225t-225 543
q0 317 225 542.5t543 225.5zM882 1351q70 0 120.5 -50.5t50.5 -120.5q0 -71 -50.5 -120.5t-120.5 -49.5q-71 0 -121 49.5t-50 120.5q0 70 50 120.5t121 50.5zM882 1266q-85 0 -85 -86q0 -85 85 -85t85 85q0 86 -85 86z" />
    <glyph glyph-name="Ugrave" unicode="&#xd9;" 
d="M962 607l-241 241l81 81l241 -241zM882 1422q-270 0 -462 -192t-192 -462t192 -462t462 -192t462 192t192 462t-192 462t-462 192zM882 1536q317 0 542.5 -225.5t225.5 -542.5q0 -318 -225.5 -543t-542.5 -225q-318 0 -543 225t-225 543q0 317 225 542.5t543 225.5z
M882 1351q70 0 120.5 -50.5t50.5 -120.5q0 -71 -50.5 -120.5t-120.5 -49.5q-71 0 -121 49.5t-50 120.5q0 70 50 120.5t121 50.5zM882 1266q-85 0 -85 -86q0 -85 85 -85t85 85q0 86 -85 86z" />
    <glyph glyph-name="circumflex" unicode="&#x2c6;" 
d="M882 768l-161 -161l-80 81l241 241l241 -241l-80 -81z" />
    <glyph glyph-name="tilde" unicode="&#x2dc;" 
d="M962 607l-160 161l-161 -161l-81 81l242 241l160 -161l161 161l81 -81z" />
    <glyph glyph-name="cedilla" unicode="&#xb8;" 
d="M882 768l-161 161l81 80l241 -241l-241 -241l-81 80z" />
    <glyph glyph-name="Scaron" unicode="&#x160;" 
d="M1003 889l80 -81l-241 -241l-241 241l80 81l161 -161zM882 1422q-270 0 -462 -192t-192 -462t192 -462t462 -192t462 192t192 462t-192 462t-462 192zM882 1536q317 0 542.5 -225.5t225.5 -542.5q0 -318 -225.5 -543t-542.5 -225q-318 0 -543 225t-225 543
q0 317 225 542.5t543 225.5zM1174 1230q70 0 120.5 -50.5t50.5 -120.5q0 -71 -50.5 -120.5t-120.5 -49.5q-71 0 -121 49.5t-50 120.5q0 70 50 120.5t121 50.5zM1174 1145q-85 0 -85 -86q0 -85 85 -85t85 85q0 86 -85 86zM590 646q70 0 120.5 -50.5t50.5 -120.5
q0 -71 -50.5 -120.5t-120.5 -49.5q-71 0 -121 49.5t-50 120.5q0 70 50 120.5t121 50.5zM590 561q-85 0 -85 -86q0 -85 85 -85t85 85q0 86 -85 86z" />
    <glyph glyph-name="scaron" unicode="&#x161;" 
d="M882 1422q-270 0 -462 -192t-192 -462t192 -462t462 -192t462 192t192 462t-192 462t-462 192zM882 1536q317 0 542.5 -225.5t225.5 -542.5q0 -318 -225.5 -543t-542.5 -225q-318 0 -543 225t-225 543q0 317 225 542.5t543 225.5zM1174 1230q70 0 120.5 -50.5
t50.5 -120.5q0 -71 -50.5 -120.5t-120.5 -49.5q-71 0 -121 49.5t-50 120.5q0 70 50 120.5t121 50.5zM1174 1145q-85 0 -85 -86q0 -85 85 -85t85 85q0 86 -85 86zM590 646q70 0 120.5 -50.5t50.5 -120.5q0 -71 -50.5 -120.5t-120.5 -49.5q-71 0 -121 49.5t-50 120.5
q0 70 50 120.5t121 50.5zM590 561q-85 0 -85 -86q0 -85 85 -85t85 85q0 86 -85 86zM1003 889l80 -81l-241 -241l-241 241l80 81l161 -161z" />
    <glyph glyph-name="Zcaron" unicode="&#x17d;" 
d="M833 1139l80 -81l-241 -241l-241 241l80 81l161 -161zM462 267q192 -162 446.5 -152.5t435.5 191.5q181 180 191 435t-152 447zM381 348l921 921q-192 162 -447 152t-435 -191q-182 -181 -191.5 -435.5t152.5 -446.5zM882 0q-317 0 -542 225.5t-226 542.5
q0 317 225.5 542t542.5 226q317 -1 542.5 -226t225.5 -542q-1 -317 -226 -542.5t-542 -225.5z" />
    <glyph glyph-name="zcaron" unicode="&#x17e;" 
d="M462 267q192 -162 446.5 -152.5t435.5 191.5q181 180 191 435t-152 447zM381 348l921 921q-192 162 -447 152t-435 -191q-182 -181 -191.5 -435.5t152.5 -446.5zM882 0q-317 0 -542 225.5t-226 542.5q0 317 225.5 542t542.5 226q317 -1 542.5 -226t225.5 -542
q-1 -317 -226 -542.5t-542 -225.5zM833 1139l80 -81l-241 -241l-241 241l80 81l161 -161z" />
    <glyph glyph-name="brokenbar" unicode="&#xa6;" horiz-adv-x="1252" 
d="M114 0v1280h1024v-1280h-1024zM146 32h960v1216h-960v-1216z" />
    <glyph glyph-name="Eth" unicode="&#xd0;" 
d="M1650 768q0 -318 -225.5 -543t-542.5 -225q-318 0 -543 225t-225 543q0 317 225 542.5t543 225.5q317 0 542.5 -225.5t225.5 -542.5zM1003 1411q-63 11 -121 11q-270 0 -462 -192t-192 -462q0 -59 11 -120zM1525 889l-763 -764q61 -11 120 -11q270 0 462 192t192 462
q0 58 -11 121zM1489 1014q-104 257 -361 361l-851 -851q56 -139 151 -229t210 -133z" />
    <glyph glyph-name="eth" unicode="&#xf0;" 
d="M1650 768q0 -318 -225.5 -543t-542.5 -225q-318 0 -543 225t-225 543q0 317 225 542.5t543 225.5q317 0 542.5 -225.5t225.5 -542.5zM1003 1411q-63 11 -121 11q-270 0 -462 -192t-192 -462q0 -59 11 -120zM1525 889l-763 -764q61 -11 120 -11q270 0 462 192t192 462
q0 58 -11 121zM1489 1014q-104 257 -361 361l-851 -851q56 -139 151 -229t210 -133z" />
    <glyph glyph-name="Yacute" unicode="&#xdd;" 
d="M962 1349l81 -81l-241 -241l-81 81zM1302 267l-921 921q-162 -192 -152.5 -447t191.5 -435q180 -182 435 -191.5t447 152.5zM461 1269l421 -421l421 421q-193 162 -450 153q-222 -10 -392 -153zM1383 1189l-421 -421l421 -421q162 192 153 450q-10 221 -153 392zM114 768
q0 317 225 542.5t543 225.5t543 -225.5t225 -542.5q0 -318 -225.5 -543t-542.5 -225t-542.5 225t-225.5 543z" />
    <glyph glyph-name="yacute" unicode="&#xfd;" 
d="M1302 267l-921 921q-162 -192 -152.5 -447t191.5 -435q180 -182 435 -191.5t447 152.5zM461 1269l421 -421l421 421q-193 162 -450 153q-222 -10 -392 -153zM1383 1189l-421 -421l421 -421q162 192 153 450q-10 221 -153 392zM114 768q0 317 225 542.5t543 225.5
t543 -225.5t225 -542.5q0 -318 -225.5 -543t-542.5 -225t-542.5 225t-225.5 543zM962 1349l81 -81l-241 -241l-81 81z" />
    <glyph glyph-name="Thorn" unicode="&#xde;" 
d="M114 768q0 317 225 542.5t543 225.5q317 0 542.5 -225.5t225.5 -542.5q0 -318 -225.5 -543t-542.5 -225q-318 0 -543 225t-225 543zM762 1411l763 -763q11 61 11 120q0 270 -192 462t-462 192q-59 0 -120 -11zM239 889q-11 -63 -11 -121q0 -270 192 -462t462 -192
q58 0 121 11zM275 1014l851 -852q114 43 209 133t152 229l-851 851q-258 -104 -361 -361z" />
    <glyph glyph-name="thorn" unicode="&#xfe;" 
d="M114 768q0 317 225 542.5t543 225.5q317 0 542.5 -225.5t225.5 -542.5q0 -318 -225.5 -543t-542.5 -225q-318 0 -543 225t-225 543zM762 1411l763 -763q11 61 11 120q0 270 -192 462t-462 192q-59 0 -120 -11zM239 889q-11 -63 -11 -121q0 -270 192 -462t462 -192
q58 0 121 11zM275 1014l851 -852q114 43 209 133t152 229l-851 851q-258 -104 -361 -361z" />
    <glyph glyph-name="multiply" unicode="&#xd7;" horiz-adv-x="1252" 
d="M114 0v1280h1024v-1280h-1024zM146 32h960v1216h-960v-1216z" />
    <glyph glyph-name="onesuperior" unicode="&#xb9;" horiz-adv-x="1252" 
d="M114 0v1280h1024v-1280h-1024zM146 32h960v1216h-960v-1216z" />
    <glyph glyph-name="twosuperior" unicode="&#xb2;" horiz-adv-x="1252" 
d="M114 0v1280h1024v-1280h-1024zM146 32h960v1216h-960v-1216z" />
    <glyph glyph-name="threesuperior" unicode="&#xb3;" horiz-adv-x="1252" 
d="M114 0v1280h1024v-1280h-1024zM146 32h960v1216h-960v-1216z" />
    <glyph glyph-name="onehalf" unicode="&#xbd;" horiz-adv-x="1252" 
d="M114 0v1280h1024v-1280h-1024zM146 32h960v1216h-960v-1216z" />
    <glyph glyph-name="onequarter" unicode="&#xbc;" horiz-adv-x="1252" 
d="M114 0v1280h1024v-1280h-1024zM146 32h960v1216h-960v-1216z" />
    <glyph glyph-name="threequarters" unicode="&#xbe;" horiz-adv-x="1252" 
d="M114 0v1280h1024v-1280h-1024zM146 32h960v1216h-960v-1216z" />
    <glyph glyph-name="overscore" unicode="&#xaf;" horiz-adv-x="1252" 
d="M114 0v1280h1024v-1280h-1024zM146 32h960v1216h-960v-1216z" />
    <glyph glyph-name="Dslash" unicode="&#x110;" 
d="M882 1536q317 0 542.5 -225.5t225.5 -542.5q0 -318 -225.5 -543t-542.5 -225q-318 0 -543 225t-225 543q0 317 225 542.5t543 225.5zM939 1420v-1304q250 21 423.5 208.5t173.5 443.5q0 255 -173.5 442.5t-423.5 209.5zM825 116v595h-595q20 -252 210 -426
q165 -150 385 -169zM230 825h595v595q-252 -21 -426 -210q-150 -166 -169 -385zM1294 939q70 0 120.5 -50.5t50.5 -120.5q0 -71 -50.5 -121t-120.5 -50q-71 0 -120.5 50t-49.5 121q0 70 49.5 120.5t120.5 50.5zM1294 853q-85 0 -85 -85t85 -85q86 0 86 85t-86 85z" />
    <glyph glyph-name="Zdot" unicode="&#x17b;" 
d="M632 1189q70 0 120.5 -50.5t50.5 -120.5q0 -71 -50.5 -121t-120.5 -50q-71 0 -121 50t-50 121q0 70 50 120.5t121 50.5zM462 267q192 -162 446.5 -152.5t435.5 191.5q181 180 191 435t-152 447zM381 348l921 921q-192 162 -447 152t-435 -191q-182 -181 -191.5 -435.5
t152.5 -446.5zM882 0q-317 0 -542 225.5t-226 542.5q0 317 225.5 542t542.5 226q317 -1 542.5 -226t225.5 -542q-1 -317 -226 -542.5t-542 -225.5z" />
    <glyph glyph-name="zdot" unicode="&#x17c;" 
d="M462 267q192 -162 446.5 -152.5t435.5 191.5q181 180 191 435t-152 447zM381 348l921 921q-192 162 -447 152t-435 -191q-182 -181 -191.5 -435.5t152.5 -446.5zM882 0q-317 0 -542 225.5t-226 542.5q0 317 225.5 542t542.5 226q317 -1 542.5 -226t225.5 -542
q-1 -317 -226 -542.5t-542 -225.5zM632 1189q70 0 120.5 -50.5t50.5 -120.5q0 -71 -50.5 -121t-120.5 -50q-71 0 -121 50t-50 121q0 70 50 120.5t121 50.5z" />
    <glyph glyph-name="Ncedilla" unicode="&#x145;" 
d="M652 538l-161 161l81 80l241 -241l-241 -241l-81 80zM381 1188q-162 -192 -152.5 -447t191.5 -435q180 -182 435 -191.5t447 152.5zM462 1269l921 -921q162 192 152 446.5t-191 435.5t-435.5 191t-446.5 -152zM114 768q0 317 225.5 542t542.5 226q317 -1 542.5 -226
t225.5 -542q-1 -317 -226 -542.5t-542 -225.5t-542 225.5t-226 542.5z" />
    <glyph glyph-name="Aringacute" unicode="&#x1fa;" 
d="M1132 929l81 -81l-241 -241l-81 81zM712 939q70 0 120.5 -50.5t50.5 -120.5q0 -71 -50.5 -121t-120.5 -50q-71 0 -121 50t-50 121q0 70 50 120.5t121 50.5zM712 853q-85 0 -85 -85t85 -85t85 85t-85 85zM882 1422q-270 0 -462 -192t-192 -462t192 -462t462 -192t462 192
t192 462t-192 462t-462 192zM882 1536q317 0 542.5 -225.5t225.5 -542.5q0 -318 -225.5 -543t-542.5 -225q-318 0 -543 225t-225 543q0 317 225 542.5t543 225.5zM882 526q70 0 120.5 -50t50.5 -120q0 -71 -50.5 -121t-120.5 -50q-71 0 -121 50t-50 121q0 70 50 120t121 50z
M882 441q-85 0 -85 -85q0 -86 85 -86t85 86q0 85 -85 85z" />
  </font>
</defs>
</svg>
